<svg xmlns="http://www.w3.org/2000/svg" width="20.1mm" height="75.364" viewBox="0 0 56.98 56.51"><path d="M43.9 35.97a8.15 8.15 0 108.15 8.15 8.16 8.16 0 00-8.15-8.15zm0 14.3a6.15 6.15 0 116.15-6.15 6.16 6.16 0 01-6.15 6.15z" fill="#bea489"/><path d="M56.52 39.76l-2.1-1.28.6-1.47a1 1 0 00-.26-1.12l-3.16-2.82a1 1 0 00-.76-.25l-2.35.22-.71-1.66a1 1 0 00-.92-.61h-2.37a.85.85 0 01-1 0h-2.37a1 1 0 00-.92.61l-.71 1.66-2.35-.22a.94.94 0 00-.76.25l-3.16 2.82a1 1 0 00-.26 1.12l.6 1.47-2.08 1.32a1 1 0 00-.47.84v6.06a1 1 0 00.67.94l1.76.63-.64 2.08a1 1 0 00.28 1l3 2.78a1 1 0 00.77.27l2.13-.2 1.33 1.9a1 1 0 00.82.42h2.37a.89.89 0 011 0h2.37a1 1 0 00.82-.42l1.33-1.9 2.12.2a1 1 0 00.78-.27l3-2.78a1 1 0 00.28-1l-.64-2.08 1.76-.63a1 1 0 00.66-.94v-6.06a1 1 0 00-.46-.88zm-1.54 6.19l-2 .72a1 1 0 00-.62 1.23l.73 2.4-2.21 2.05-2.25-.21a1 1 0 00-.91.43l-1.36 1.91h-1.85a.89.89 0 01-1 0h-1.85l-1.37-1.94a1 1 0 00-.91-.43l-2.25.21-2.21-2.05.73-2.4a1 1 0 00-.62-1.23l-2-.72v-4.8l2.32-1.46a1 1 0 00.4-1.22l-.65-1.6 2.3-2.06 2.65.25a1 1 0 001-.6l.74-1.73h1.71a.89.89 0 011 0h1.71l.74 1.73a1 1 0 001 .6l2.64-.25 2.31 2.06-.65 1.6a1 1 0 00.4 1.22l2.31 1.46z" fill="#bea489"/><path d="M52.11 10.98H40.52V9.26a1.07 1.07 0 00-.09-.43 3 3 0 00-1.89-1.59c-.39-6.58-4.8-7.21-5-7.23h-14c-.19 0-4.6.65-5 7.23a2.94 2.94 0 00-1.88 1.59 1.07 1.07 0 00-.09.43v1.72H1a1 1 0 00-1 1v32.7a1 1 0 001 1h31a1 1 0 000-2H9.42v-3.49a1 1 0 00-1-1h-2.2v-2.11a1 1 0 00-1-1H2v-16l14 6.78a.91.91 0 00.43.1h5.54v2.11a1 1 0 001 1h.61v2.49a1 1 0 001 1h4a1 1 0 001-1v-2.49h.61a1 1 0 001-1v-2.11h5.54a.91.91 0 00.43-.1l14-6.78v14.08a1 1 0 002 0V11.98a1 1 0 00-1.05-1zm-19.24 0V9.45a1.18 1.18 0 01.48-.24h4.88a.94.94 0 01.31.32v1.46zm-10.64 0V9.37c0-1.34-1.33-2-2.12-2.14a2.1 2.1 0 011.27-1.46h10.37a2.1 2.1 0 011.27 1.46c-.79.16-2.12.8-2.12 2.14v1.61zm-2.47-9h13.58c.4.08 2.88.76 3.21 5.21h-1.49a4.13 4.13 0 00-3-3.42H21.02a4.13 4.13 0 00-3 3.42h-1.49c.36-4.45 2.89-5.12 3.23-5.19zm-5.17 7.5a1.12 1.12 0 01.27-.31h4.92c.2 0 .42.16.45.16v1.61h-5.64zM4.22 38.08v2.11a1 1 0 001 1h2.2v2.49H1.99v-5.6zM26.55 21.7c1.16.5 2.61 1.45 2.61 2.25v4.1h-5.21v-4.1c0-.8 1.47-1.75 2.6-2.25zm1 9.84h-2v-1.49h2zm8.92-6.6h-5.31v-1c0-2.62-3.82-4.11-4.26-4.27a.78.78 0 00-.14 0 1.38 1.38 0 00-.2 0 1.46 1.46 0 00-.22 0h-.13c-.44.16-4.26 1.65-4.26 4.27v1h-5.31L2 17.84v-4.86h49.11v4.86z" fill="#3d4460"/></svg>