<svg xmlns="http://www.w3.org/2000/svg" width="64" height="48" viewBox="0 0 63.74 47.87"><path d="M62.47 21.94l-5.93 1.69a11.48 11.48 0 00-2-2.33.71.71 0 00-.14-.1c-6.71-3.87-18.07-10.4-18.85-10.63s-2.55.18-5.46 1.12a1 1 0 00-.69.86 5.37 5.37 0 01-1.95 3.3 5.21 5.21 0 01-2.37 1.1V8.84l3.29-2.37a1.09 1.09 0 00.44-.32l2-1.43a4.18 4.18 0 013.61-.67l10.31 3.72a1.11 1.11 0 00.65 0l17.74-5.82a1 1 0 00.64-1.27 1 1 0 00-1.27-.63l-17.4 5.71-10-3.6a6.19 6.19 0 00-5.48.94l-1.46 1.07a15.07 15.07 0 00-1.47-.85 5 5 0 00-5.38.2l-7.27 5.4L1.5 2.65a1 1 0 10-.89 1.79l13.08 6.54a1 1 0 00.44.11 1 1 0 00.6-.2l7.78-5.79a3 3 0 013.24 0l.64.34-2.86 2.06a1 1 0 00-.42.81v9.65a1 1 0 00.83 1 6.39 6.39 0 004.78-1.53 7.44 7.44 0 002.58-4 21 21 0 013.74-.91c1.26.58 11.51 6.45 18.3 10.37.43.39 2.95 2.78 2.39 5-.46 1.85-1.71 2.11-3.41 1.92a39.11 39.11 0 01-5.64-4 1 1 0 00-1.25 1.56 41.39 41.39 0 005.78 4.11 14.66 14.66 0 01-.25 4c-.3 1.34-2.19 1.46-2.89 1.44l-5.62-4.24a1 1 0 10-1.21 1.59l5.4 4.07a4 4 0 01-1.23 2.13c-.89.76-2.71.77-3.61.69l-4.21-3.37a1 1 0 00-1.4.16 1 1 0 00.15 1.4l4 3.17a5.2 5.2 0 01-.76 1.67c-.31.43-1.64.68-2.78.65l-3.79-2.22c0-.11 0-.21.06-.29v-.11a4.32 4.32 0 00-.66-3.43 4.15 4.15 0 00-2.52-1.4 4.58 4.58 0 00-2.33-3.93 5.53 5.53 0 00-5.11.51 4 4 0 00-2.31-1.42 5.9 5.9 0 00-3.12.25c-.57-2.81-3.67-2.88-5-2.92h-.05a3 3 0 00-1.83.76L1.6 26.16a1 1 0 10-.93 1.77l8.05 4.22a16.06 16.06 0 00-1.39 2.33.87.87 0 00-.07.17c-.35 1.29-.36 4 2.14 4.81a9.47 9.47 0 003 .57 4 4 0 001.68 2.32 4.42 4.42 0 002.41.67 6.21 6.21 0 001.48-.19c.54.9 2.11 3.14 4.49 3.14a4.32 4.32 0 001.14-.17l.32-.13a3.84 3.84 0 003.45 2.19 4.33 4.33 0 001-.11 6.13 6.13 0 003.9-3.26l3.75 2.21a1 1 0 00.45.13h.5c1.07 0 3.29-.16 4.25-1.47a6.93 6.93 0 001-2.18h.41a6.48 6.48 0 004.11-1.21 5.88 5.88 0 001.84-3.08c1.69-.07 3.87-.75 4.36-3a16.44 16.44 0 00.33-4 4.23 4.23 0 004.43-3.46 5.19 5.19 0 00-.18-3l5.58-1.59a1 1 0 00.69-1.24 1 1 0 00-1.32-.66zM9.04 35.27c.88-1.76 2.22-3.38 2.79-3.38 2.3.06 3.1.47 3.19 1.63a.83.83 0 00.07.27c-.25.34-2.2 2.93-2.6 3.62a2.75 2.75 0 00-.24.63 7.64 7.64 0 01-2.34-.46c-1.2-.41-.96-1.91-.87-2.31zm6 5.41a2.06 2.06 0 01-.84-2.26c.25-.43 1.53-2.18 2.36-3.29a4.7 4.7 0 013-.61 2 2 0 011.42 1.09 1.4 1.4 0 01-.11 1.33 32.92 32.92 0 01-3.41 3.93 3.21 3.21 0 01-2.39-.19zm7.88 3.21c-1.77.52-3.14-1.69-3.43-2.2a29.72 29.72 0 003.11-3.68 3.32 3.32 0 00.5-2.09l.06-.06a3.69 3.69 0 013.43-.58c1.13.54 1.22 2.19 1.21 2.72-.65 1.31-2.42 4.37-4.16 5.53a2.84 2.84 0 01-.69.36zm4.89 1.92a1.9 1.9 0 01-2.29-1.18 20.21 20.21 0 003.85-5.26 2.23 2.23 0 011.37.7 2.5 2.5 0 01.25 1.89v.13c-.09.62-1.15 3.29-3.15 3.72z" fill="#3d4460"/></svg>
