<svg xmlns="http://www.w3.org/2000/svg" width="62.967" height="73.928" viewBox="0 0 47.23 55.46"><path d="M46.23 4.57h-3.15V1a1 1 0 00-2 0v3.57h-7.25V1a1 1 0 00-2 0v3.57h-7.29V1a1 1 0 00-2 0v3.57h-7.25V1a1 1 0 00-2 0v3.57H6.04V1a1 1 0 00-2 0v3.57H.96a1 1 0 00-1 1v48.88a1 1 0 001 1h45.23a1 1 0 001-1V5.57a1 1 0 00-.96-1zM2 14.3h43.23v20.28h-14a1 1 0 00-1 1v12.47H2zm30.26 22.28h12.91a17.57 17.57 0 01-3.83 6.89 19.28 19.28 0 01-7.73 4.58h-1.35zm-28.18-30v2.83a1 1 0 002 0V6.58h7.25v2.83a1 1 0 002 0V6.58h7.21v2.83a1 1 0 002 0V6.58h7.25v2.83a1 1 0 002 0V6.58h7.25v2.83a1 1 0 002 0V6.58h2.15v5.73H2V6.58zM2 53.46v-3.4h31.76a.84.84 0 00.27 0 21.12 21.12 0 008.78-5.19 18.11 18.11 0 002.42-3.3v11.88z" fill="#3d4460"/><path d="M6.07 24.19a1 1 0 01-1-1v-2.24a1 1 0 012 0v2.24a1 1 0 01-1 1zm0 5a1 1 0 01-1-1v-2.24a1 1 0 012 0v2.24a1 1 0 01-1 1zm0 5a1 1 0 01-1-1v-2.24a1 1 0 012 0v2.24a1 1 0 01-1 1zm0 5a1 1 0 01-1-1v-2.24a1 1 0 012 0v2.24a1 1 0 01-1 1zm0 5a1 1 0 01-1-1v-2.24a1 1 0 012 0v2.24a1 1 0 01-1 1z" fill="#bea489"/></svg>