<svg xmlns="http://www.w3.org/2000/svg" width="7.74mm" height="7mm" viewBox="0 0 21.93 19.85"><path d="M21.3 9.3H8.68l3.39-3.17a.63.63 0 000-.9.64.64 0 00-.9 0L6.89 9.29a.61.61 0 00-.29.19.64.64 0 00-.07.71.67.67 0 00.29.31l4.43 4.15a.63.63 0 00.43.17.63.63 0 00.47-.2.64.64 0 000-.9l-3.37-3.14h12.6a.63.63 0 00.63-.63.64.64 0 00-.71-.65z" fill="#444a66"/><path d="M9.89 18.58a8.66 8.66 0 010-17.31.64.64 0 00.64-.63.64.64 0 00-.64-.64 9.93 9.93 0 000 19.85.64.64 0 00.64-.63.64.64 0 00-.64-.64z" fill="#444a66"/></svg>