<svg xmlns="http://www.w3.org/2000/svg" width="576.718" height="58.7mm" viewBox="0 0 432.52 166.38"><path d="M82.98 153.14c30.54-4.6 146.91-5.81 148.08-5.82v-1c-1.17 0-117.61 1.22-148.22 5.83z" fill="#eedbb1"/><path d="M344.92 165.39a22.16 22.16 0 00-1.16-5.09c-1.13-3.39-6.29-8-7.1-8.67-.06-.11-.89-1.77 1.46-12.35.21-.92.48-1.93.79-3 .42-.24 3.85-2.25 14.84-11.51 11.56-9.74 36.09-44.8 36.34-45.16l.22-.32-.26-.29c-.08-.1-1.82-2-6.47-3.22V70.6l-14.91-16.54h-32.61l-.93-6.15 3.22-1.34a.51.51 0 00.31-.46v-5.32a.52.52 0 00-.31-.47l-3.94-1.61v-11l3.15-2.68a.49.49 0 00.18-.38v-5.19a.5.5 0 00-.24-.43l-3.67-2.18v-1.21l8.33-3.28a.49.49 0 00.31-.56.49.49 0 00-.49-.4h-7.74l-2.16-11a.51.51 0 00-.59-.4.15.15 0 01-.24 0 .51.51 0 00-.59.4l-2.17 11h-7.73a.509.509 0 00-.19 1l8.34 3.28v1.21l-3.67 2.17a.5.5 0 00-.24.43v5.24a.52.52 0 00.17.38l3.15 2.68v11l-3.93 1.61a.5.5 0 00-.31.47v5.32a.5.5 0 00.31.46l3.22 1.34-.93 6.15h-25.79v-5.63l-100.9-5.68h-.16l-11.89 7.44v6.41h-21.46l17.8-6.33v-5.19l-.06-.11a3.23 3.23 0 00-1.45-1.24c-.86-.41-12.17-1.4-16.34-1.75v-4.48h-1.38l.88-7.92-16.54-1.79-1.22-14.49 6.39-2.09a.49.49 0 00.34-.51.5.5 0 00-.41-.46l-6.39-1.05c-.19-1.22-1.13-4.72-5.89-4.72s-5.67 3.37-5.87 4.66h-6.54a.5.5 0 00-.23.94l3.58 1.79-5.28 3.59-.76 12.29-21.63 1.89a.54.54 0 00-.37.21.5.5 0 00-.07.41l2.32 9.42a.46.46 0 00.07.16h-1.93c-.78 0-19.21.67-21.89 1.09l-3.11.48v8.42l.42.07c.14 0 13 2.17 19 6.65a19.67 19.67 0 00-2.88.26l-.42.06v10.18a8.07 8.07 0 00-1.56.42 15 15 0 00-2.77 1.5l-.22.15v2.59c0 1.74 3 2.57 4.33 2.84v2.94l-1 .15a11.28 11.28 0 00-3.17 1.17l-.25.15v3.39c0 1.74 3.36 3 4.66 3.37v2.56h-5.6a31.34 31.34 0 00-9.27 1.25 2.18 2.18 0 00-1.44 2.76v.11c.11.76 1.2 1 4.57 1.43a38.92 38.92 0 014.32.75 15 15 0 013.88 2l-9.9 3v16h.7l-14.77 2.68v8.58a2.55 2.55 0 00-1.77.91 1.88 1.88 0 00-.34 1.4v6.1c0 3.54 1.44 5.19 7.1 10.19 4.82 4.25 14.43 16.59 16.94 19.85h-91v1h135v-1H92.3c-1.43-1.88-12.18-15.88-17.54-20.6S68 138.47 68 135.32v-6.26a.89.89 0 01.15-.65 2 2 0 011.5-.57c2.49-.17 134.43-19.95 140.09-20.8.31-.08 7.69-2 7.69-7.47V88.15c0-.18.21-4.28 3.6-5s69-7.52 103.43-8.19c28-.54 46.81-.13 56 1.21 5.26.77 7.77 2.56 8.56 3.23-2.61 3.72-25.08 35.48-35.91 44.62a170.71 170.71 0 01-13.75 10.8c4.05-12.92 13.91-33.75 14-34l-.9-.43c-.13.26-12.69 26.79-15.33 38.68-.46 2.06-.83 3.92-1.1 5.55-31.65.5-83.7 1.69-84.22 1.7v1c.52 0 52.37-1.19 84-1.7-.6 3.94-.57 6.33.09 6.74.06.05 5.73 4.94 6.83 8.26a22.56 22.56 0 011.11 4.77h-65.22v1h153.9v-1zM328.35 47.18l-3.27-1.37v-4.65l3.93-1.62a.49.49 0 00.31-.46V27.52a.52.52 0 00-.17-.38L326 24.47v-4.73l3.62-2.18a.5.5 0 00.25-.43V15.3a.5.5 0 00-.32-.46l-6.2-2.44h5.52a.51.51 0 00.49-.41l2-10 2 10a.5.5 0 00.49.41h5.52l-6.2 2.44a.5.5 0 00-.32.46v1.83a.5.5 0 00.25.43l3.66 2.18v4.73l-3.14 2.67a.53.53 0 00-.18.38v11.54a.5.5 0 00.31.46l3.87 1.64v4.65l-3.27 1.37a.5.5 0 00-.3.54l1 6.38h-.35v19.68h.46c-2.43 0-5 .06-7.56.1V54.63l1-6.91a.5.5 0 00-.25-.54zM164.83 30.54l-.79 7h-13.83l-.73-8.7zm-36-14.46l5.34-3.62 2.59 1.29-2.63 13.45-6 .53zm-20.51 23.43l-2.18-8.85 28.48-2.5a.49.49 0 00.44-.4l2.78-14.19a.5.5 0 00-.27-.54l-5.65-2.82h9.41a.5.5 0 00.5-.5.5.5 0 00-.5-.5h-4c.21-1.12 1.08-3.66 4.87-3.66 4.75 0 4.93 4 4.93 4.17a.51.51 0 00.42.48l4.74.78-4.81 1.58a.49.49 0 00-.34.51l1.73 20.64-5.86-18.39a.49.49 0 00-.49-.35.51.51 0 00-.47.38l-5.67 22.23H114.5v1h50.93v1.33h-57.17a.54.54 0 00.07-.4zm40.73-1.93h-11.63l5.18-20.3zm16.37 3.33v2.07h.46c6 .51 15.7 1.42 16.46 1.71a2.56 2.56 0 01.93.72v4.15l-26.8 9.53v10.05h-12.04a8 8 0 00-7.56 4.87v18.25c-2.26-.66-9.94-2.87-12.54-3.16-3.44-.38-3.75 1.67-3.77 1.83v.71c-1.61 0-6.57-.09-8.18 0s-4.86 1.63-6.34 2.35V40.91zm-83.93 1.43l2.26-.35.39-.05v5.2h1v-5.29c4.6-.36 17.16-.83 19.87-.92v19.52a21.21 21.21 0 00-3.17-3.47c-5-5-17.81-7.48-20.35-7.93zm128 63.75c-1.33.2-129.94 19.48-139.42 20.72v-7.61l16.66-3-.18-1-2.41.44v-15.2l9.93-3c.91.68 1.54 1.21 1.55 1.22l.65-.76c-.16-.14-4-3.4-6.84-4.2a35.89 35.89 0 00-4.45-.78 20 20 0 01-3.74-.7c-.11-.75-.19-1.29.81-1.67a29.88 29.88 0 018.91-1.19h6.66v-4.3l-.37-.11c-1.73-.49-4.29-1.63-4.29-2.51v-2.8a9.45 9.45 0 012.57-.92l1.87-.28v-4.63l-.42-.07c-1.57-.28-3.91-1.09-3.91-1.94v-2.06a13.78 13.78 0 012.33-1.24 5.86 5.86 0 011.72-.41h.5V57.8c.48-.06 1-.12 1.55-.15v9.81h1v-9.83a2.79 2.79 0 011.14.18 27.14 27.14 0 013.71 4.25v41h1v-7.95a34.83 34.83 0 015.87-2.38v7.18h1v-7.25c1.92-.07 6.21 0 7.65 0v3.5h1v-5.1s.25-1.17 2.67-.91c2.61.29 10.87 2.69 12.65 3.21v13h.84l-43.65 7.63c-.12 0-.34-.14-.34-.3v-8.17a4.08 4.08 0 013.2-1.32 2.5 2.5 0 00-.28 1.39c.11.9 1.72 6.82 1.9 7.5l1-.27c-.49-1.81-1.78-6.66-1.87-7.35a2 2 0 01.42-1.22h20.54v-1H97.78a5.17 5.17 0 00-5 1.82l-.08.13v8.49a1.44 1.44 0 001.21 1.31h.1l122.41-21.45v6c0 4.75-6.87 6.51-6.89 6.51zm11.28-23.94c-4.16.91-4.39 5.91-4.39 6v4.4l-78.59 13.75v-32a7 7 0 016.6-4.14h13.05V59.83l6.19-2.2h24.27v2.34h-12.1l-9 3.37v13l-11.79 3.72v23h1v-22.3l11.75-3.7v-13l8.13-3.06h13.05V50.8l10.52-6.58v12.52h1V43.82l99.43 5.6v4.64h-27.27c-2.46 0-4.22 2.55-4.27 2.62l-18.73 22.38c-15.73 1.49-27.42 2.79-28.81 3.09zm103.62-8.21c-20 .39-50.63 2.85-73.42 5l18.09-21.61s1.56-2.27 3.56-2.27h54v18.8zm11.27-.17V55.06h32.53l14.43 15.92v4.55c-.61-.14-1.27-.26-2-.36-8-1.17-23.06-1.64-44.92-1.4z" fill="#eedbb1"/></svg>