<svg xmlns="http://www.w3.org/2000/svg" width="67.313" height="51.477" viewBox="0 0 50.49 38.62"><path d="M25.22 38.61H1.46a2.88 2.88 0 01-.72-.06A1 1 0 010 37.48a1 1 0 011-.9h1.3c.77 0 .78 0 .78-.8V23.72a1.18 1.18 0 01.82-1.24c1-.38 2-.8 2.94-1.16a.73.73 0 00.57-.83v-3.54c0-.78.17-1 .91-1.32 2.82-1.14 5.64-2.29 8.47-3.41a.78.78 0 00.62-.89V7.95a1.09 1.09 0 01.83-1.22L34.5.15a1.45 1.45 0 011.24 0l10.69 4.58a1.22 1.22 0 01.78 1.31v29.8c0 .74 0 .74.77.74h1.51a1 1 0 011 .94 1.07 1.07 0 01-1 1.09H25.22zm-5.79-27.52c.88-.35 1.67-.64 2.44-1a1.38 1.38 0 011.19 0c2.35 1 4.7 2.05 7.07 3a1.52 1.52 0 011.08 1.65v21.31c0 .37.13.49.49.48h1.66c.55 0 .67 0 .67-.69V2.56c-.25.09-.41.14-.57.21l-4.81 1.94q-4.37 1.76-8.71 3.53c-.18.07-.47.24-.47.38-.06.79-.04 1.58-.04 2.47zm2 1.51a.89.89 0 00-.25 0L9.73 17.23c-.11.05-.28.16-.29.25v2.71c.73-.29 1.33-.58 2-.77a1.68 1.68 0 011 0c1.72.69 3.42 1.43 5.12 2.16a1 1 0 01.62.88v13.53c0 .41.11.59.55.57h2c.68 0 .71 0 .71-.7V12.6zm-10.51 9.32a2.11 2.11 0 00-.31.06c-1.74.7-3.47 1.38-5.19 2.11a.72.72 0 00-.28.57v11.33c0 .45.11.6.58.59h4.57c.52 0 .67-.13.66-.66V22.51zm25.24 10.69a.46.46 0 00-.07.18v3.43c0 .36.24.35.49.35h8.06c.36 0 .49-.13.48-.49v-2.34c0-.38-.1-.53-.52-.56-2.18-.13-4.35-.31-6.53-.47-.63-.04-1.27-.07-1.91-.1zm-.08-6v3.68c0 .09.24.26.38.27 2.71.22 5.42.41 8.13.62.36 0 .51-.06.5-.44V28.4c0-.4-.13-.54-.52-.59-1.87-.25-3.73-.53-5.6-.8zm9-.8v-2.72c0-.46-.17-.6-.57-.68-2-.43-4.08-.88-6.13-1.33l-2.29-.47v3.9zm-9-11.22v3.63c0 .12.24.31.4.35 2.73.61 5.47 1.2 8.21 1.79a2.49 2.49 0 00.39 0v-2.69c0-.37-.13-.51-.47-.6-1.73-.49-3.46-1-5.18-1.51zm0-12v3.59c0 .13.24.31.4.37 2.68 1 5.35 2 8 2.94l.57.18V7.09a.77.77 0 00-.57-.89c-1.49-.61-3-1.26-4.44-1.89zm9 12.48v-2.62a.64.64 0 00-.52-.74l-7.59-2.77c-.27-.1-.55-.19-.88-.29v3.31a.55.55 0 00.49.64c2 .57 4 1.17 6.07 1.76zm-21.6 18.34v2.9c0 .09.26.25.41.25h4.83c.28 0 .4-.09.4-.39v-1.92c0-.28-.08-.41-.38-.43l-3.46-.3c-.56-.01-1.12-.07-1.8-.11zm5.65-1.61v-2.26c0-.35-.15-.44-.45-.49l-2.9-.5-2.32-.37v2.66c0 .42.17.53.55.55.71 0 1.41.11 2.12.17zm0-4.75v-2.21c0-.36-.15-.48-.45-.56l-4.83-1.23a1.67 1.67 0 00-.39 0v2.41c0 .53.17.72.67.73a6.45 6.45 0 01.86.15zm-5.66-9.3v2.81c0 .13.24.32.4.36.88.25 1.77.47 2.66.7l2.58.66v-2.19c0-.33-.12-.45-.41-.54-.91-.3-1.8-.62-2.7-.92zm5.69-.24v-2.07a.58.58 0 00-.43-.65c-1.58-.66-3.14-1.34-4.71-2-.15-.07-.31-.11-.53-.19v2.68c0 .15.2.35.35.41.59.24 1.2.43 1.81.64zM13.1 33.04c-.05.09-.09.13-.09.18v3c0 .12.25.32.39.32h2.39c.26 0 .37-.09.36-.36v-2.39a.48.48 0 00-.24-.37c-.97-.13-1.92-.25-2.84-.38zm3-1.66a1.22 1.22 0 00.06-.21v-1.86c0-1 0-1-.92-1.23L13 27.45v3.24c0 .1.17.25.28.27.88.16 1.82.28 2.77.42zm.07-5.18v-2.56a.53.53 0 00-.39-.57c-.78-.32-1.56-.67-2.34-1a4 4 0 00-.44-.11v3.07a.4.4 0 00.2.31c.96.29 1.89.56 2.96.86z" fill="#3d4360"/></svg>