<svg xmlns="http://www.w3.org/2000/svg" width="9.56mm" height="52.082" viewBox="0 0 27.1 39.07"><path fill="#dec07c" d="M0 0h27.1v39.07H0z"/><path d="M15.86 18.76l-2.31 1.62-2.32-1.62a.84.84 0 00-1.17.21.85.85 0 00.21 1.17l2.8 1.95a.84.84 0 00.48.16.86.86 0 00.48-.16l2.8-1.95a.852.852 0 00-1-1.38z" fill="#010101"/><path d="M19.03 16.16l-4.47-2.68a1.93 1.93 0 00-2 0l-4.48 2.68a2 2 0 00-.95 1.68v6.08a2 2 0 002 2h8.89a2 2 0 002-2v-6.08a2 2 0 00-.99-1.68zm-.73 7.76a.27.27 0 01-.28.28H9.07a.28.28 0 01-.28-.28v-6.08a.28.28 0 01.14-.24l4.47-2.68a.28.28 0 01.15 0 .23.23 0 01.14 0l4.48 2.65a.29.29 0 01.13.24z" fill="#010101"/></svg>