<svg xmlns="http://www.w3.org/2000/svg" width="9.56mm" height="52.082" viewBox="0 0 27.1 39.07"><path fill="#dec07c" d="M0 0h27.1v39.07H0z"/><path d="M16.92 10.11h-6.74a2 2 0 00-2 2v14.82a2 2 0 002 2h6.74a2 2 0 002-2v-14.8a2 2 0 00-2-2.02zm.7 16.84a.64.64 0 01-.67.68h-6.77a.64.64 0 01-.68-.68V12.13a.64.64 0 01.68-.68h.67v.21a1.81 1.81 0 001.82 1.81h1.75a1.81 1.81 0 001.82-1.81v-.21h.68a.64.64 0 01.67.68z" fill="#010101"/><path d="M15.62 24.93h-4a.68.68 0 100 1.35h4a.68.68 0 000-1.35z" fill="#010101"/></svg>