<svg xmlns="http://www.w3.org/2000/svg" width="7.06mm" height="7.06mm" viewBox="0 0 20 20"><path d="M0 3.22A3.25 3.25 0 013.25-.03h10.5A3.24 3.24 0 0117 3.22v4.75h-1.5V3.22a1.75 1.75 0 00-1.75-1.75H3.25A1.75 1.75 0 001.5 3.22v11.5a1.76 1.76 0 001.75 1.75H4v.25a4.35 4.35 0 00.19 1.25h-.94A3.26 3.26 0 010 14.72zm4.75-.25a.75.75 0 100 1.5h7.5a.75.75 0 000-1.5zM6 6.22a.75.75 0 01.75-.75h5.5a.75.75 0 010 1.5h-5.5A.76.76 0 016 6.22zm-1 6a3.25 3.25 0 013.25-3.25h8.5A3.24 3.24 0 0120 12.22v4.5a3.25 3.25 0 01-3.25 3.25h-8.5A3.26 3.26 0 015 16.72zm3.25-1.75a1.74 1.74 0 00-1.27.55l5.52 3.55 5.53-3.55a1.74 1.74 0 00-1.28-.55zM6.5 16.72a1.76 1.76 0 001.75 1.75h8.5a1.75 1.75 0 001.75-1.75V12.5l-5.59 3.6a.74.74 0 01-.81 0l-5.6-3.6z" fill="#dec07c"/></svg>