<svg xmlns="http://www.w3.org/2000/svg" width="7.05mm" height="7.41mm" viewBox="0 0 20 21"><path d="M7.99 13.49a2.53 2.53 0 01.5-1.5H2.25A2.25 2.25 0 000 14.24v.58a3.76 3.76 0 00.89 2.44c1.57 1.83 4 2.73 7.1 2.73h.05a2.65 2.65 0 01-.05-.5v-1c-2.74 0-4.7-.74-5.95-2.21a2.23 2.23 0 01-.54-1.46v-.58a.75.75 0 01.75-.75zM7.99 0a5 5 0 11-5 5 5 5 0 015-5zm0 1.5a3.5 3.5 0 103.5 3.5 3.5 3.5 0 00-3.5-3.5zm6.51 15.42l-5.49-3.2a2 2 0 012-1.73h7a2 2 0 012 2z" fill="#dec07c"/><path d="M14.73 17.93l5.26-2.83v3.89a2 2 0 01-2 2h-7a2 2 0 01-2-2v-4.13l5.25 3.07a.5.5 0 00.49 0z" fill="#dec07c"/></svg>