<svg xmlns="http://www.w3.org/2000/svg" width="40.554" height="24" viewBox="0 0 30.41 18.01"><path d="M30.38 8.95l-1.45-4.16a.44.44 0 00-.41-.29h-5a.44.44 0 00-.44.44v10.68h-4.39a2 2 0 00-1.14-1.38.42.42 0 00.36-.42.44.44 0 00-.43-.44H.43a.44.44 0 000 .88h2.06a2 2 0 102.54 2.66 2 2 0 102.54-2.66h8.44a2 2 0 102.7 2.21h4.47a2 2 0 003.82 0h2.97a.44.44 0 00.43-.44v-7a.34.34 0 00-.02-.08zM3.28 17.1a1.09 1.09 0 111.09-1.09 1.08 1.08 0 01-1.09 1.09zm3.49 0a1.09 1.09 0 111.07-1 1.08 1.08 0 01-1.07 1zm-1.74-2a2 2 0 00-.95-.91h1.9a2 2 0 00-.95.99zm11.81 2a1.09 1.09 0 111.09-1.09 1.08 1.08 0 01-1.09 1.09zm8.29 0a1.09 1.09 0 111.09-1.09 1.09 1.09 0 01-1.13 1.09zm2-1.52h-.12a2 2 0 00-1.91-1.54 1.93 1.93 0 00-1.11.35V9.71h4a.44.44 0 000-.87h-4V5.31h4.23l1.32 3.8v3h-1.11a.43.43 0 00-.43.43.44.44 0 00.43.44h1.11v2.61z" fill="#3d4460"/><path d="M.67 11.95h20.4a.44.44 0 00.44-.44V.44a.44.44 0 00-.44-.44H.67a.44.44 0 00-.43.44v11.07a.44.44 0 00.43.44zM1.11.88h19.53V11.1h-1.66V3.47a.44.44 0 00-.43-.44.44.44 0 00-.44.44v7.63h-1.67V3.47a.44.44 0 00-.44-.44.44.44 0 00-.43.44v7.63H13.9V3.47a.44.44 0 10-.88 0v7.63h-1.67V3.47a.44.44 0 00-.43-.44.44.44 0 00-.44.44v7.63H8.84V3.47a.44.44 0 00-.44-.44.44.44 0 00-.43.44v7.63H6.29V3.47a.44.44 0 00-.43-.44.44.44 0 00-.44.44v7.63H3.75V3.47a.44.44 0 00-.44-.44.44.44 0 00-.43.44v7.63H1.14z" fill="#3d4460"/></svg>