<svg xmlns="http://www.w3.org/2000/svg" width="68.296" height="46.413" viewBox="0 0 51.23 34.8"><path d="M6.15 32.5v-19l-2.67 3.26h1a1.13 1.13 0 011.1 1.1 1.1 1.1 0 01-1.08 1.12H1.1a1.07 1.07 0 01-1-.65 1.1 1.1 0 01.18-1.22l2.93-3.61q1.58-1.92 3.14-3.85a1.28 1.28 0 011.09-.47h4.29c.41 0 .48-.16.48-.52V1.45c0-1.14.33-1.48 1.45-1.48h23.93c1 0 1.38.39 1.38 1.4V6.5c0 1-.41 1.4-1.39 1.4h-7.06c-1 0-1.37-.4-1.37-1.36v-4.3h-3.3v3.51a1.08 1.08 0 01-1.11 1.13 1.09 1.09 0 01-1.1-1.15V2.34a.79.79 0 000-.13h-3.51v1.62c1.05-.14 1.73.59 2.5 1.09a1 1 0 01.24 1.44 1 1 0 01-1.4.39 1.6 1.6 0 00-2 0 1.08 1.08 0 01-1.61-1V2.22h-3.31v7.77c0 1-.37 1.39-1.38 1.39H8.58v21h21.23V16.02a1.09 1.09 0 01.75-1.13 1.11 1.11 0 011.3.4c1.17 1.43 2.35 2.85 3.5 4.3a1.26 1.26 0 001.13.54h6.74c1 0 1.41.37 1.41 1.42v11.71c0 1-.39 1.41-1.42 1.41H2.73a1.16 1.16 0 01-1.25-.83 1.13 1.13 0 011.16-1.42h2.93z" fill="#d4cbba"/><path d="M31.98 9.2h11.24a1.62 1.62 0 011.38.65q2.9 3.57 5.83 7.11a1.25 1.25 0 01.28 1.4 1.18 1.18 0 01-1.22.62H37.37a1.55 1.55 0 01-1.3-.62c-1.78-2.19-3.58-4.37-5.35-6.56a1 1 0 00-.84-.39h-9.35a1.12 1.12 0 110-2.22h11.44zm-7.25 19.86h-2.25c-.75 0-1.27-.45-1.26-1.14a1.11 1.11 0 011.25-1.11h4.6a1.13 1.13 0 110 2.25c-.77.01-1.56 0-2.34 0zM49 34.8h-1a1.12 1.12 0 110-2.24h2.14a1.09 1.09 0 011.11 1.13 1.11 1.11 0 01-1.13 1.12z" fill="#d4cbba"/></svg>