<svg xmlns="http://www.w3.org/2000/svg" width="42.935" height="6.24mm" viewBox="0 0 32.2 17.69"><path d="M6.09 14.74h-.92a.44.44 0 000 .88h.92a.44.44 0 000-.88zm1.21-2.36v.87a.44.44 0 00.44.43.43.43 0 00.43-.43v-.87a.44.44 0 00-.43-.44.44.44 0 00-.44.44zm.44 1.69a.44.44 0 00-.44.43v.87a.44.44 0 00.44.44.43.43 0 00.43-.44v-.87a.43.43 0 00-.43-.43z" fill="#3d4460"/><path d="M31.74 8.41h-7.83v-8a.44.44 0 00-.43-.44H7.83a.44.44 0 00-.43.44v8h-7a.44.44 0 00-.44.44v8.41a.44.44 0 00.44.44h31.34a.44.44 0 00.44-.44V8.85a.44.44 0 00-.44-.44zm-3.86.87h1.49v3.1h-1.49zM19.61.87h1.5v3.07h-1.5zm-1.89 0h1V4.4a.44.44 0 00.43.44h2.37a.44.44 0 00.44-.44V.87h1.06v7.54h-5.28zm-9.47 0h8.6v7.54h-8.6zm4 8.41h1.49v3.1h-1.5zM9.5 16.82H.89V9.28H9.5zm.87-7.54h1v3.53a.44.44 0 00.44.44h2.37a.44.44 0 00.43-.44V9.28h1.06v7.54h-5.31zm14.79 7.54h-8.6V9.28h8.6zm6.19 0h-5.32V9.28h1v3.53a.44.44 0 00.44.44h2.37a.44.44 0 00.44-.44V9.28h1.06z" fill="#3d4460"/><path d="M21.74 14.74h-.92a.44.44 0 000 .88h.92a.44.44 0 000-.88zm1.22-2.36v.87a.44.44 0 00.88 0v-.87a.44.44 0 10-.88 0zm.44 1.69a.44.44 0 00-.44.43v.87a.44.44 0 00.88 0v-.87a.44.44 0 00-.44-.43zm-9.91-7.74h-.92a.44.44 0 000 .88h.92a.44.44 0 000-.88zm1.64-2.8a.43.43 0 00-.43.44v.87a.43.43 0 00.43.43.44.44 0 00.44-.43v-.9a.44.44 0 00-.44-.41zm0 2.13a.43.43 0 00-.43.43v.85a.44.44 0 00.43.44.44.44 0 00.44-.44v-.87a.44.44 0 00-.44-.41z" fill="#3d4460"/></svg>