<svg xmlns="http://www.w3.org/2000/svg" width="40.97" height="7.32mm" viewBox="0 0 30.73 20.74"><path d="M30.3 19.87h-5a2.11 2.11 0 10-2.08-2.54h-1.21a2.1 2.1 0 10-2.08 2.54h-9.2a2.11 2.11 0 10-2.08-2.54H7.53a2.1 2.1 0 10-2.08 2.54h-5a.44.44 0 00-.44.43.44.44 0 00.44.44h29.86a.44.44 0 00.44-.44.44.44 0 00-.45-.43zm-26-2.11A1.24 1.24 0 115.54 19a1.24 1.24 0 01-1.26-1.24zm1.26 2.11a2.1 2.1 0 002-1.67h1.12a2.11 2.11 0 002 1.67zm4-2.11A1.23 1.23 0 1110.79 19a1.24 1.24 0 01-1.27-1.24zm9.24 0A1.23 1.23 0 1120.03 19a1.24 1.24 0 01-1.27-1.24zm1.25 2.11a2.11 2.11 0 002-1.67h1.12a2.1 2.1 0 002 1.67zm4-2.11A1.24 1.24 0 1125.29 19a1.24 1.24 0 01-1.28-1.24zm6.25-7.21a.44.44 0 00-.44.43v1.09h-1.73v-.87a.44.44 0 00-.44-.43h-1.45V.46a.43.43 0 00-.43-.43H4.93a.43.43 0 00-.43.43V10.8H3.01a.44.44 0 00-.44.43v.87H.84v-1.09a.44.44 0 00-.88 0v3.05a.44.44 0 10.88 0v-1.09h1.73v1.09a.44.44 0 00.44.44h12.11a.35.35 0 01.42 0h12.11a.44.44 0 00.44-.44v-1.09h1.73v1.09a.44.44 0 00.88 0v-3.05a.44.44 0 00-.4-.46zM5.37.87h20v9.9h-1.52V3.3a.44.44 0 00-.44-.44.44.44 0 00-.43.44v7.47h-1.74V3.3a.44.44 0 00-.44-.44.44.44 0 00-.43.44v7.47h-1.61V3.3a.44.44 0 00-.44-.44.44.44 0 00-.43.44v7.47h-2.08V3.3a.44.44 0 00-.43-.44.44.44 0 00-.43.44v7.47h-2.08V3.3a.44.44 0 00-.43-.44.44.44 0 00-.44.44v7.47h-1.61V3.3a.44.44 0 00-.43-.44.44.44 0 00-.44.44v7.47H7.78V3.3a.44.44 0 00-.43-.44.44.44 0 00-.44.44v7.47H5.39zm21.88 12.72H15.58a.35.35 0 01-.42 0H3.49v-2h23.76z" fill="#3d4460"/></svg>