<svg xmlns="http://www.w3.org/2000/svg" width="39.194" height="6.34mm" viewBox="0 0 29.39 17.98"><path d="M29.27 8.48a.44.44 0 10-.62-.62l-1.9 1.9h-6.9V8.39a4.07 4.07 0 00-.36-1.67h2.15a.44.44 0 00.43-.44.43.43 0 00-.43-.43h-2.67a4.15 4.15 0 00-3.27-1.6h-.59V.43a.44.44 0 00-.87 0v3.82h-.59a4.15 4.15 0 00-3.27 1.6H7.76a.43.43 0 00-.43.43.44.44 0 00.43.44h2.1a4.07 4.07 0 00-.36 1.67v1.37H2.65l-1.9-1.9a.44.44 0 10-.62.62l2 2a.5.5 0 00.28.12 2.32 2.32 0 104.11 1.45A2.26 2.26 0 006 10.61h3.47v3.19a4.15 4.15 0 004.15 4.15h2.05a4.15 4.15 0 004.15-4.15v-3.19h3.52a2.26 2.26 0 00-.52 1.44 2.32 2.32 0 104.64 0 2.27 2.27 0 00-.53-1.45.5.5 0 00.28-.12zm-25 5.05a1.45 1.45 0 111.45-1.45 1.45 1.45 0 01-1.49 1.45zm14.75.3a3.28 3.28 0 01-3.28 3.28h-2.05a3.28 3.28 0 01-3.28-3.28V8.39a3.28 3.28 0 013.28-3.27h2.05a3.28 3.28 0 013.28 3.27zm6.19-.3a1.45 1.45 0 111.45-1.45 1.45 1.45 0 01-1.49 1.45z" fill="#3d4460"/><path d="M16.74 8.75h-4.08a.44.44 0 00-.44.43.44.44 0 00.44.44h4.08a.44.44 0 00.44-.44.44.44 0 00-.44-.43z" fill="#3d4460"/></svg>