<svg xmlns="http://www.w3.org/2000/svg" width="6.69mm" height="7.06mm" viewBox="0 0 18.95 20"><path d="M13.22 0a2.24 2.24 0 012.25 2.25v15.5A2.25 2.25 0 0113.22 20h-7.5a2.25 2.25 0 01-2.25-2.25V2.22A2.25 2.25 0 015.72-.03zm0 1.5h-7.5a.75.75 0 00-.75.75v15.5a.76.76 0 00.75.75h7.5a.75.75 0 00.75-.75V2.22a.74.74 0 00-.75-.72zm-2.5 14a.75.75 0 010 1.5h-2.5a.75.75 0 110-1.5zm7.41-9.37v.09l.58 1.45a2.74 2.74 0 01-.24 2.52l-.11.16-.15.2a1.25 1.25 0 00-.21 1.07l.05.14.58 1.46a.75.75 0 01-1.35.65v-.1l-.58-1.45a2.75 2.75 0 01.24-2.52l.11-.15.15-.2a1.27 1.27 0 00.21-1.08l-.01-.15-.58-1.46a.74.74 0 01.42-1 .76.76 0 01.87.23zm-16.5 0v.09l.58 1.45a2.74 2.74 0 01-.24 2.52l-.11.16-.15.2a1.25 1.25 0 00-.21 1.07l.05.14.58 1.46a.75.75 0 01-1.35.65v-.1L.2 12.32A2.75 2.75 0 01.44 9.8l.11-.15.15-.2a1.27 1.27 0 00.21-1.08l-.05-.14-.58-1.46a.74.74 0 01.42-1 .76.76 0 01.87.23z" fill="#dec27c"/></svg>