<svg xmlns="http://www.w3.org/2000/svg" width="7.58mm" height="5.47mm" viewBox="0 0 21.5 15.5"><path d="M6 6.97h8.19l-1.51-1.44a.75.75 0 010-1.06.74.74 0 011.06 0l2.75 2.75a.66.66 0 01.17.24.88.88 0 01.05.29.82.82 0 01-.05.28.7.7 0 01-.17.25l-2.75 2.75a.75.75 0 01-.53.22.79.79 0 01-.53-.22.75.75 0 010-1.06l1.47-1.47H5.96a.75.75 0 110-1.5z" fill="#3d4360"/><path d="M0 4.75v6a4.76 4.76 0 004.75 4.75h12a4.75 4.75 0 004.75-4.75v-6A4.75 4.75 0 0016.75 0h-12A4.76 4.76 0 000 4.75zm1.5 0A3.25 3.25 0 014.75 1.5h12A3.24 3.24 0 0120 4.75v6A3.25 3.25 0 0116.75 14h-12a3.26 3.26 0 01-3.25-3.25z" fill="#3d4360"/></svg>