<svg xmlns="http://www.w3.org/2000/svg" width="34.65mm" height="33.91mm" viewBox="0 0 98.22 96.12"><path d="M44.15 96.15h48.23c1.83 0 2.91-.38 3.75-1.3a4.55 4.55 0 001-3.29V57.52a18.92 18.92 0 00-.34-3.37 1.57 1.57 0 00-1.24-1.33 12.19 12.19 0 00-2.78-.44h-39.5c-3 0-6.14-.07-9.2 0-3.6.14-3.7.61-4.22 3.27a4.8 4.8 0 00-.05.88v35.14c-.01 2.89 1.51 4.41 4.35 4.48zm46.24-39.82L68.46 77.52 46.54 56.33zm-46.6 4.64l1.4-1.32.62.74.66.84a14.52 14.52 0 001.37 1.6c5.7 5.58 11.44 11.15 17 16.53 2.51 2.43 4.75 2.44 7.27 0l10-9.7 8.57-8.28.59-.55.39-.35 1.52-1.39v33.06H43.79z" fill="#e1cea1"/><path d="M58.41 3.78C58 .88 57.95.51 55.04.1a12 12 0 00-1.69-.09H5.58c-3.53 0-4.45.93-4.47 4.47V39.2c0 3.09 1.45 4.52 4.56 4.52h48.34c2.93 0 4.41-1.5 4.41-4.44V4.35a2.65 2.65 0 00-.01-.57zm-6.74.16L29.79 25.15 7.89 3.98zm2.84 35.88H5.06V7l1.47 1.15.22.17a6.06 6.06 0 01.53.42l4.18 4.06c4.72 4.57 9.6 9.3 14.38 14 2 1.91 3.47 2.43 5.22 1.77a7.18 7.18 0 002.29-1.55c4.65-4.45 9.36-9 13.91-13.41l4.79-4.62c.18-.18.37-.34.59-.54l.35-.31 1.52-1.37z" fill="#fff"/><path d="M13.37 63.52H2.28a2.51 2.51 0 00-1.8.65A1.66 1.66 0 000 65.4c0 1.25.85 2 2.31 2h22.48a2.56 2.56 0 001.84-.67 1.66 1.66 0 00.47-1.18 2.06 2.06 0 00-2.33-2z" fill="#e1cea1"/><path d="M71.16 12.82a2 2 0 001.17 2 4.59 4.59 0 001.48.2h21.77a6.32 6.32 0 001.17-.09 1.84 1.84 0 001.45-1.54 1.88 1.88 0 00-1-2 4.5 4.5 0 00-1.45-.21H73.94a10.22 10.22 0 00-1.13.05 2 2 0 00-1.65 1.59zm16.25 17.9a2 2 0 00-2.2-2H73.33a2 2 0 00-2.18 1.79 2 2 0 00.54 1.41 2.21 2.21 0 001.59.64h12a2 2 0 002.13-1.84z" fill="#fff"/><path d="M10.79 82.95c0 1.21.9 2 2.33 2h11.67c1.34 0 2.25-.75 2.27-1.81a1.89 1.89 0 00-.52-1.39 2.26 2.26 0 00-1.64-.63H13a2 2 0 00-2.21 1.83z" fill="#e1cea1"/></svg>