<svg xmlns="http://www.w3.org/2000/svg" width="93.241" height="95.055" viewBox="0 0 69.92 71.29"><path d="M32.35 2.33H1a1 1 0 010-2h31.35a1 1 0 010 2zm-16.3 5.82H1a1 1 0 010-2h15.05a1 1 0 110 2zm10.64 0h-5.32a1 1 0 010-2h5.32a1 1 0 010 2zm37.25 3.83a6 6 0 116-6 6 6 0 01-6 6zm0-10a4 4 0 104 4 4 4 0 00-4-3.98z" fill="#bb9f82"/><path d="M69.77 50.51l-3.32-9.53a1 1 0 00-.95-.68H54.09a1 1 0 00-1 1v24.5H43a4.51 4.51 0 00-2.62-3.15 1.004 1.004 0 00-.17-2H1.1a1 1 0 000 2h4.72a4.48 4.48 0 105.82 6.1 4.48 4.48 0 105.82-6.1h19.36a4.49 4.49 0 106.2 5.08h10.25a4.49 4.49 0 008.76-.05 1.09 1.09 0 00.26.05h6.54a1 1 0 001-1V50.87a.92.92 0 00-.06-.36zM7.64 69.29a2.49 2.49 0 112.49-2.49 2.5 2.5 0 01-2.49 2.49zm8 0a2.49 2.49 0 112.49-2.49 2.5 2.5 0 01-2.49 2.49zm-4-4.49a4.49 4.49 0 00-2.18-2.1h4.36a4.49 4.49 0 00-2.18 2.1zm27 4.49a2.49 2.49 0 112.49-2.49 2.5 2.5 0 01-2.49 2.49zm19 0a2.49 2.49 0 112.49-2.49 2.5 2.5 0 01-2.49 2.49zm4.65-3.49a1.09 1.09 0 00-.26.05 4.48 4.48 0 00-6.94-2.74V52.39h9.19a1 1 0 000-2h-9.19V42.3h9.7l3 8.71v6.86h-2.55a1 1 0 000 2h2.55v6z" fill="#3d4460"/><path d="M1.66 57.38h46.77a1 1 0 001-1V31a1 1 0 00-1-1H1.66a1 1 0 00-1 1v25.38a1 1 0 001 1zm1-25.38h44.77v23.38h-3.79V37.87a1 1 0 00-2 0v17.51h-3.83V37.87a1 1 0 00-2 0v17.51h-3.84V37.87a1 1 0 00-2 0v17.51h-3.83V37.87a1 1 0 00-2 0v17.51h-3.83V37.87a1 1 0 00-2 0v17.51h-3.84V37.87a1 1 0 00-2 0v17.51H8.64V37.87a1 1 0 00-2 0v17.51h-4z" fill="#3d4460"/></svg>