<svg xmlns="http://www.w3.org/2000/svg" width="93.959" height="95.055" viewBox="0 0 70.47 71.29"><path d="M32.62 2.33H1.27a1 1 0 010-2h31.35a1 1 0 010 2zm-16.3 5.82H1.27a1 1 0 010-2h15.05a1 1 0 110 2zm10.64 0h-5.32a1 1 0 010-2h5.32a1 1 0 010 2zm37.25 3.83a6 6 0 116-6 6 6 0 01-6 6zm0-10a4 4 0 104 4 4 4 0 00-4-3.98z" fill="#bb9f82"/><path d="M69.47 69.29H57.88a4.82 4.82 0 10-4.72-5.82h-2.57a4.82 4.82 0 10-4.77 5.82H24.69a4.82 4.82 0 10-4.77-5.82h-2.57a4.82 4.82 0 10-4.76 5.82H1a1 1 0 000 2h68.47a1 1 0 000-2zM9.81 64.47a2.83 2.83 0 112.83 2.83 2.83 2.83 0 01-2.83-2.83zm2.88 4.82a4.81 4.81 0 004.66-3.82h2.57a4.82 4.82 0 004.67 3.82zm9.12-4.82a2.83 2.83 0 112.83 2.83 2.83 2.83 0 01-2.83-2.83zm21.2 0a2.83 2.83 0 112.82 2.83 2.82 2.82 0 01-2.82-2.83zm2.87 4.82a4.82 4.82 0 004.67-3.82h2.61a4.81 4.81 0 004.66 3.82zm9.13-4.82a2.83 2.83 0 112.82 2.83 2.82 2.82 0 01-2.82-2.83zm14.46-16.54a1 1 0 00-1 1v2.49h-4v-2a1 1 0 00-1-1h-3.31V24.73a1 1 0 00-1-1H11.31a1 1 0 00-1 1v23.69H6.98a1 1 0 00-1 1v2h-4v-2.49a1 1 0 00-2 0v7a1 1 0 002 0v-2.49h4v2.43a1 1 0 001 1h27.77a1 1 0 00.48-.14 1 1 0 00.49.14h27.77a1 1 0 001-1v-2.49h4v2.49a1 1 0 002 0v-7a1 1 0 00-1.02-.94zm-57.16-22.2h45.85v22.69h-3.48V31.3a1 1 0 00-2 0v17.12h-4V31.3a1 1 0 00-2 0v17.12H43V31.3a1 1 0 10-2 0v17.12h-4.76V31.3a1 1 0 00-1-1 1 1 0 00-1 1v17.12h-4.78V31.3a1 1 0 00-2 0v17.12h-3.68V31.3a1 1 0 10-2 0v17.12h-4V31.3a1 1 0 10-2 0v17.12H12.3zm50.18 29.14H35.72a1 1 0 00-.49.14 1 1 0 00-.48-.14H7.98v-4.49h54.51z" fill="#3d4460"/></svg>