<svg xmlns="http://www.w3.org/2000/svg" width="95.131" height="95.055" viewBox="0 0 71.33 71.29"><path d="M70.33 69.29c-3.08 0-3.83-4.43-3.83-4.47a1 1 0 00-1.91-.25c-.58 1.31-2.63 4.72-5.15 4.72a3.17 3.17 0 01-1.75-.57l12.5-15.51a1 1 0 00-.77-1.63h-4.41V34.46a1 1 0 00-1-1H22.78a1 1 0 00-1 1v17.12h-3.32V39.03a1 1 0 00-1-1H15.3v-4.16a1 1 0 00-2 0v4.15H6.98a1 1 0 00-1 1v12.55H2.41a1 1 0 00-1 1v3.58a1 1 0 00.11.45l4.2 8.35c-.19.4-.54 1.13-1.09 2.22S1.99 69.02.77 69.31a1.007 1.007 0 00.23 2h.22c.42-.1 4.11-1 5.2-3.19.18-.35.33-.66.47-.94 1 1.58 2.94 3.65 5.58 3.65s5-2.34 6.18-3.92c1.07 1.62 3.1 4 5.79 4s4.62-2.24 5.74-3.85c1.05 1.76 3.06 4.26 6.07 4.26s4.78-2.36 5.75-4.13c1.17 1.74 3.3 4.13 6.22 4.13s4.66-2.22 5.66-4a10.39 10.39 0 001.77 2.29 5.39 5.39 0 003.76 1.64c2.65 0 4.63-2.11 5.79-3.82.85 1.9 2.45 3.82 5.1 3.82a1 1 0 000-2zM44.4 51.58v-7.06h18.61v7.06zm18.61-9.06H44.4v-7.06h18.61zM42.4 35.46v7.06H23.78v-7.06zm-18.62 9.06H42.4v7.06H23.78zm-15.8-4.49h8.48v4.32h-2.74a1 1 0 000 2h2.74v5.23H7.98zm45.88 23.94a1 1 0 00-.94.69s-1.57 4.63-4.7 4.63-5.39-4.69-5.41-4.73a1 1 0 00-1.86.1s-1.57 4.63-4.7 4.63-5-4.64-5.06-4.68a1 1 0 00-1.83-.08c-.59 1.21-2.63 4.35-4.92 4.35s-4.26-3.13-4.83-4.34a1 1 0 00-.88-.57 1.06 1.06 0 00-.9.52c-.67 1.19-2.92 4.3-5.36 4.3-1.95 0-3.42-1.92-4.17-3.17l-4.89-9.7v-2.34h63.92L56.26 67.32a10.83 10.83 0 01-1.44-2.68 1 1 0 00-.96-.67z" fill="#3d4460"/><path d="M57.36 57.74a1 1 0 00-1-1h-3.65a1 1 0 100 2h3.65a1 1 0 001-1z" fill="#3d4460"/><path d="M33.75 2.33H2.41a1 1 0 010-2h31.34a1 1 0 010 2zM17.46 8.15H2.41a1 1 0 010-2h15.05a1 1 0 110 2zm10.64 0h-5.32a1 1 0 010-2h5.32a1 1 0 010 2zm37.24 3.83a6 6 0 116-6 6 6 0 01-6 6zm0-10a4 4 0 104 4 4 4 0 00-4-3.98z" fill="#bb9f82"/></svg>