<svg xmlns="http://www.w3.org/2000/svg" width="98.797" height="95.055" viewBox="0 0 74.09 71.29"><path d="M32.34 2.33H.97a1 1 0 010-2h31.34a1 1 0 010 2zM16.05 8.15H.97a1 1 0 010-2h15.05a1 1 0 010 2zm10.64 0h-5.32a1 1 0 010-2h5.32a1 1 0 010 2zm37.28 3.83a6 6 0 116-6 6 6 0 01-6 6zm0-10a4 4 0 104 4 4 4 0 00-4-3.98z" fill="#bb9f82"/><path d="M14.23 64.53h-2.1a1 1 0 000 2h2.1a1 1 0 000-2zm2.74-5.43v2a1 1 0 002 0v-2a1 1 0 00-2 0zm1 3.87a1 1 0 00-1 1v2a1 1 0 002 0v-2a1 1 0 00-1-1z" fill="#3d4460"/><path d="M73.09 50h-18V31.72a1 1 0 00-1-1H18.22a1 1 0 00-1 1V50h-16a1 1 0 00-1 1v19.29a1 1 0 001 1h71.83a1 1 0 001-1V51a1 1 0 00-.96-1zm-8.86 2h3.43v7.09h-3.43zm-19-19.28h3.43v7.09h-3.39zm-4.32 0h2.32v8.09a1 1 0 001 1h5.43a1 1 0 001-1v-8.09h2.43V50H40.97zm-21.73 0h19.79V50H19.22zM28.27 52h3.43v7.09h-3.43zm-6.3 17.29H2.26V52h19.71zm2-17.29h2.32v8.09a1 1 0 001 1h5.43a1 1 0 001-1V52h2.44v17.29H23.97zm33.91 17.29h-19.7V52H57.9zm14.19 0H59.9V52h2.33v8.09a1 1 0 001 1h5.43a1 1 0 001-1V52h2.43z" fill="#3d4460"/><path d="M50.15 64.53h-2.11a1 1 0 000 2h2.11a1 1 0 000-2zm2.82-5.43v2a1 1 0 002 0v-2a1 1 0 00-2 0zm1 3.87a1 1 0 00-1 1v2a1 1 0 002 0v-2a1 1 0 00-1-1zM31.19 45.24h-2.11a1 1 0 000 2h2.11a1 1 0 000-2zm3.78-6.43a1 1 0 00-1 1v2a1 1 0 102 0v-2a1 1 0 00-1-1zm0 4.88a1 1 0 00-1 1v2a1 1 0 002 0v-2a1 1 0 00-1-1z" fill="#3d4460"/></svg>