<svg xmlns="http://www.w3.org/2000/svg" width="99.137" height="82.961" viewBox="0 0 74.35 62.23"><path d="M32.34 2.34H1a1 1 0 010-2h31.34a1 1 0 110 2zM16.05 8.15h-15a1 1 0 010-2h15a1 1 0 010 2zm10.64 0h-5.32a1 1 0 010-2h5.32a1 1 0 010 2zm37.25 3.83a6 6 0 116-6 6 6 0 01-6 6zm0-10a4 4 0 104 4 4 4 0 00-4-3.98z" fill="#bb9f82"/><path d="M74.06 40.45a1.004 1.004 0 10-1.42-1.42l-4.36 4.37H52.45v-3.15a9.42 9.42 0 00-.81-3.83h4.92a1 1 0 000-2h-6.12a9.5 9.5 0 00-7.49-3.67h-1.36V22a1 1 0 00-2 0v8.75h-1.36a9.47 9.47 0 00-7.48 3.67h-6a1 1 0 000 2h4.8a9.42 9.42 0 00-.81 3.83v3.15H13.02l-4.37-4.37a1 1 0 00-1.41 0 1 1 0 000 1.42l4.66 4.65a1 1 0 00.64.28 5.26 5.26 0 00-1.21 3.34 5.32 5.32 0 0010.64 0 5.25 5.25 0 00-1.2-3.32h8v7.33a9.51 9.51 0 009.5 9.5h4.72a9.51 9.51 0 009.5-9.5V45.4h8.07a5.32 5.32 0 108.24 0 1 1 0 00.64-.28zM16.65 52.04a3.32 3.32 0 113.32-3.32 3.32 3.32 0 01-3.32 3.32zm33.8.69a7.5 7.5 0 01-7.5 7.5h-4.72a7.5 7.5 0 01-7.5-7.5V40.25a7.5 7.5 0 017.5-7.5h4.72a7.5 7.5 0 017.5 7.5zm14.2-.69a3.32 3.32 0 113.32-3.32 3.33 3.33 0 01-3.32 3.32z" fill="#3d4460"/><path d="M45.33 41.07h-9.37a1 1 0 100 2h9.37a1 1 0 100-2z" fill="#3d4460"/></svg>