<svg xmlns="http://www.w3.org/2000/svg" width="56.05mm" height="81.902" viewBox="0 0 158.88 61.44"><path fill="#fff" d="M6.82 27.93h149.75V41.9H6.82z"/><path d="M150.14 24.1h-15.63a1 1 0 00-.5.14l-.43.25v-1.55a1 1 0 00-1-1h-13.86a1 1 0 00-1 1v2.38h-2.14v-2.38a1 1 0 00-1-1h-13.86a1 1 0 00-1 1v2.38h-2.14v-2.38a1 1 0 00-1-1H82.72a1 1 0 00-1 1v2.38h-2.14v-2.38a1 1 0 00-1-1H64.72a1 1 0 00-1 1v2.38h-2.14v-2.38a1 1 0 00-1-1H46.72a1 1 0 00-1 1v2.38h-8.48a1.13 1.13 0 00-.36.06l-4.15 1.6h-.37v-9.2h8.2v7.37h2v-7.4c1-.08 1.51-.3 1.76-.76a.67.67 0 00.07-.18l2.24-3.66a1 1 0 00-.86-1.52h-8.91l-2.5-4.76h2.07v-2h-2.72V0h-2v4.87h-2v2h2v4.71h-2.54a1 1 0 00-1 1v4.15a1 1 0 001 1h1.19v2.6H26.2v-5.6a1 1 0 00-1-1h-1.66V11.4a1 1 0 00-1-1h-3.83a1 1 0 00-1 1v2.33h-1.83a1 1 0 00-1 1v12.21H9.73a1 1 0 00-.73.31 1.07 1.07 0 00-.27.75c.41 6.87 4.81 8.54 6.15 8.89a20.39 20.39 0 014.45 2.2 1 1 0 00.54.16h126.2a1 1 0 00.87-1.51l-2.58-4.22 6.53-7.77a1 1 0 00-.77-1.65zm-30.42-.16h11.86v1.38h-11.86zm-18 0h11.86v1.38h-11.86zm-18 0h11.86v1.38H83.72zm-18 0h11.86v1.38H65.72zm-18 0h11.86v1.38H47.72zM33.72 10l.86 1.63h-.86zm-3.54 5.78v-2.15h13.73l-1.28 2.1a8.49 8.49 0 01-1.15.05h-11.3zm.1 6.6v4.56h-4.1v-4.6zm-10.69-9.92h1.83v1.33h-1.83zm-2.83 3.33h7.32v2.88h-7.35zm0 4.88h7.37v6.31h-7.42zm125.6 12.1a1 1 0 00-.09 1.15l1.94 3.32H20.07a20.83 20.83 0 00-4.77-2.3c-.94-.24-3.89-1.38-4.55-6h22.17a.92.92 0 00.36-.07l4.15-1.59h95.09a1 1 0 00.5-.14l1.76-1h13.21z" fill="#3d4460"/><path fill="#3d4460" d="M34.12 19.04h1.81v2h-1.81zm3 0h1.81v2h-1.81zm-3 3h1.81v2h-1.81zm3 0h1.81v2h-1.81zm-30.3 22.1H1a1 1 0 100 2h5.82a1 1 0 000-2zm31.65 1a1 1 0 00-1-1H16.54a1 1 0 000 2h20.93a1 1 0 001-1zm29.28 1a1 1 0 000-2H48.97a1 1 0 000 2zm23.03 0a1 1 0 000-2H74.49a1 1 0 000 2zm33.58-2h-23.64a1 1 0 000 2h23.64a1 1 0 000-2zm23.37 0H133.1a1 1 0 000 2h14.63a1 1 0 000-2zm10.14 0h-5.15a1 1 0 000 2h5.15a1 1 0 000-2zm-109.51 7.8H37.12a1 1 0 000 2h11.24a1 1 0 000-2zm32.12 1a1 1 0 00-1-1h-17.3a1 1 0 100 2h17.3a1 1 0 001-1zm32.07-1H95.27a1 1 0 000 2h17.28a1 1 0 100-2zm23.46 0h-9a1 1 0 000 2h9a1 1 0 000-2zm-41.49 7.5H78.23a1 1 0 000 2h16.29a1 1 0 100-2z"/></svg>