<svg xmlns="http://www.w3.org/2000/svg" width="83.49" height="74.57" viewBox="0 0 62.62 55.92"><path d="M62.61 19.5a5.83 5.83 0 00-6.24-6.21h-4.83V6.18A5.81 5.81 0 0045.33 0H12.94A5.84 5.84 0 006.7 6.22v28.34a1.372 1.372 0 002.72.36 3.24 3.24 0 000-.65V6.23a3.08 3.08 0 013.4-3.42h32.46c2.25 0 3.45 1.19 3.45 3.46V43.7c0 .69 0 1.38-.05 2.05a14.25 14.25 0 00.69 6.28l.48 1.16H17.17c-1.18 0-1.43.67-1.52.89a1.31 1.31 0 00.11 1.21 1.74 1.74 0 001.47.66h38.13a6.91 6.91 0 007.25-7.27c.06-9.76.06-19.57 0-29.18zm-2.76 3.9v25.43a4.19 4.19 0 01-3.92 4.31h-.26a4.07 4.07 0 01-2.82-1.11 4.38 4.38 0 01-1.33-3.17v-32.8h5.5a3 3 0 012.8 3.07c.03 1.44.03 2.85.03 4.27z" fill="#3d4360"/><path d="M16.05 47.86a1.39 1.39 0 00-1.42-1.35H9.41v-4.94a1.89 1.89 0 00-.46-1.35 1.29 1.29 0 00-.93-.35c-1 0-1.37.87-1.37 1.66v4.75l-.64.15H5.9a1.11 1.11 0 01-.31 0h-4a1.39 1.39 0 00-1.57 1.38 1.41 1.41 0 001.57 1.38h5.08v5.19a1.41 1.41 0 002.08 1.27 1.49 1.49 0 00.68-1.25v-5.22h5.24a1.39 1.39 0 001.38-1.32zm1.09-25.72a1.4 1.4 0 00-1.47.84 1.26 1.26 0 00.07 1.25 1.55 1.55 0 001.3.67h23.94a1.86 1.86 0 001.34-.46 1.27 1.27 0 00.35-.94c0-1-.86-1.36-1.66-1.36H17.14zm6.62-6.09h17.23a1.84 1.84 0 001.34-.46 1.25 1.25 0 00.35-.93c0-1.27-1.33-1.37-1.73-1.37H23.73a1.42 1.42 0 00-1.43.86 1.34 1.34 0 00.11 1.25 1.59 1.59 0 001.35.65z" fill="#3d4360"/></svg>