<svg xmlns="http://www.w3.org/2000/svg" width="20.1mm" height="19.94mm" viewBox="0 0 56.98 56.51"><path d="M313.48,428.49a8.15,8.15,0,1,0,8.15,8.15A8.16,8.16,0,0,0,313.48,428.49Zm0,14.3a6.15,6.15,0,1,1,6.15-6.15A6.16,6.16,0,0,1,313.48,442.79Z" transform="translate(-269.58 -392.52)" style="fill:#bea489"/><path d="M326.1,432.28,324,431l.6-1.47a1,1,0,0,0-.26-1.12l-3.16-2.82a1,1,0,0,0-.76-.25l-2.35.22-.71-1.66a1,1,0,0,0-.92-.61h-2.37a.85.85,0,0,1-1,0H310.7a1,1,0,0,0-.92.61l-.71,1.66-2.35-.22a.94.94,0,0,0-.76.25l-3.16,2.82a1,1,0,0,0-.26,1.12l.6,1.47-2.08,1.32a1,1,0,0,0-.47.84v6.06a1,1,0,0,0,.67.94l1.76.63-.64,2.08a1,1,0,0,0,.28,1l3,2.78a1,1,0,0,0,.77.27l2.13-.2,1.33,1.9a1,1,0,0,0,.82.42h2.37a.89.89,0,0,1,1,0h2.37a1,1,0,0,0,.82-.42l1.33-1.9,2.12.2a1,1,0,0,0,.78-.27l3-2.78a1,1,0,0,0,.28-1l-.64-2.08,1.76-.63a1,1,0,0,0,.66-.94v-6.06A1,1,0,0,0,326.1,432.28Zm-1.54,6.19-2,.72a1,1,0,0,0-.62,1.23l.73,2.4-2.21,2.05-2.25-.21a1,1,0,0,0-.91.43L315.94,447h-1.85a.89.89,0,0,1-1,0h-1.85l-1.37-1.94a1,1,0,0,0-.91-.43l-2.25.21-2.21-2.05.73-2.4a1,1,0,0,0-.62-1.23l-2-.72v-4.8l2.32-1.46a1,1,0,0,0,.4-1.22l-.65-1.6,2.3-2.06,2.65.25a1,1,0,0,0,1-.6l.74-1.73h1.71a.89.89,0,0,1,1,0h1.71l.74,1.73a1,1,0,0,0,1,.6l2.64-.25,2.31,2.06-.65,1.6a1,1,0,0,0,.4,1.22l2.31,1.46Z" transform="translate(-269.58 -392.52)" style="fill:#bea489"/><path d="M321.69,403.5H310.1v-1.72a1.07,1.07,0,0,0-.09-.43,3,3,0,0,0-1.89-1.59c-.39-6.58-4.8-7.21-5-7.23h-14c-.19,0-4.6.65-5,7.23a2.94,2.94,0,0,0-1.88,1.59,1.07,1.07,0,0,0-.09.43v1.72H270.58a1,1,0,0,0-1,1v32.7a1,1,0,0,0,1,1h31a1,1,0,0,0,0-2H279v-3.49a1,1,0,0,0-1-1H275.8V429.6a1,1,0,0,0-1-1h-3.22v-16l14,6.78a.91.91,0,0,0,.43.1h5.54v2.11a1,1,0,0,0,1,1h.61v2.49a1,1,0,0,0,1,1h4a1,1,0,0,0,1-1v-2.49h.61a1,1,0,0,0,1-1v-2.11h5.54a.91.91,0,0,0,.43-.1l14-6.78v14.08a1,1,0,0,0,2,0V404.5A1,1,0,0,0,321.69,403.5Zm-19.24,0,0-1.53a1.18,1.18,0,0,1,.48-.24h4.88a.94.94,0,0,1,.31.32v1.46Zm-10.64,0v-1.61c0-1.34-1.33-2-2.12-2.14h0a2.1,2.1,0,0,1,1.27-1.46h10.37a2.1,2.1,0,0,1,1.27,1.46h0c-.79.16-2.12.8-2.12,2.14v1.61Zm-2.47-9h13.58c.4.08,2.88.76,3.21,5.21h-1.49a4.13,4.13,0,0,0-3-3.42l-.21,0H290.81l-.21,0a4.13,4.13,0,0,0-3,3.42h-1.49C286.47,395.26,289,394.59,289.34,394.52ZM284.17,402a1.12,1.12,0,0,1,.27-.31h4.92c.2,0,.42.16.45.16v1.61h-5.64ZM273.8,430.6v2.11a1,1,0,0,0,1,1H277v2.49h-5.43v-5.6Zm22.33-16.38c1.16.5,2.61,1.45,2.61,2.25v4.1h-5.21v-4.1C293.53,415.67,295,414.72,296.13,414.22Zm1,9.84h-2v-1.49h2Zm8.92-6.6h-5.31v-1c0-2.62-3.82-4.11-4.26-4.27a.78.78,0,0,0-.14,0,1.38,1.38,0,0,0-.2,0,1.46,1.46,0,0,0-.22,0l-.13,0c-.44.16-4.26,1.65-4.26,4.27v1h-5.31l-14.64-7.1V405.5h49.11v4.86Z" transform="translate(-269.58 -392.52)" style="fill:#3d4460"/></svg>