<svg xmlns="http://www.w3.org/2000/svg" width="16.66mm" height="19.56mm" viewBox="0 0 47.23 55.46"><path d="M320.69,397.62h-3.15v-3.57a1,1,0,0,0-2,0v3.57h-7.25v-3.57a1,1,0,0,0-2,0v3.57H299v-3.57a1,1,0,0,0-2,0v3.57h-7.25v-3.57a1,1,0,0,0-2,0v3.57h-7.25v-3.57a1,1,0,0,0-2,0v3.57h-3.08a1,1,0,0,0-1,1V447.5a1,1,0,0,0,1,1h45.23a1,1,0,0,0,1-1V398.62A1,1,0,0,0,320.69,397.62Zm-44.23,9.73h43.23v20.28h-14a1,1,0,0,0-1,1V441.1H276.46Zm30.26,22.28h12.91a17.57,17.57,0,0,1-3.83,6.89,19.28,19.28,0,0,1-7.73,4.58h-1.35Zm-28.18-30v2.83a1,1,0,0,0,2,0v-2.83h7.25v2.83a1,1,0,0,0,2,0v-2.83H297v2.83a1,1,0,0,0,2,0v-2.83h7.25v2.83a1,1,0,0,0,2,0v-2.83h7.25v2.83a1,1,0,0,0,2,0v-2.83h2.15v5.73H276.46v-5.73Zm-2.08,46.88v-3.4h31.76a.84.84,0,0,0,.27,0,21.12,21.12,0,0,0,8.78-5.19,18.11,18.11,0,0,0,2.42-3.3V446.5Z" transform="translate(-274.46 -393.05)" style="fill:#3d4460"/><path d="M280.53,417.24a1,1,0,0,1-1-1V414a1,1,0,0,1,2,0v2.24A1,1,0,0,1,280.53,417.24Z" transform="translate(-274.46 -393.05)" style="fill:#bea489"/><path d="M280.53,422.24a1,1,0,0,1-1-1V419a1,1,0,0,1,2,0v2.24A1,1,0,0,1,280.53,422.24Z" transform="translate(-274.46 -393.05)" style="fill:#bea489"/><path d="M280.53,427.24a1,1,0,0,1-1-1V424a1,1,0,0,1,2,0v2.24A1,1,0,0,1,280.53,427.24Z" transform="translate(-274.46 -393.05)" style="fill:#bea489"/><path d="M280.53,432.24a1,1,0,0,1-1-1V429a1,1,0,0,1,2,0v2.24A1,1,0,0,1,280.53,432.24Z" transform="translate(-274.46 -393.05)" style="fill:#bea489"/><path d="M280.53,437.24a1,1,0,0,1-1-1V434a1,1,0,0,1,2,0v2.24A1,1,0,0,1,280.53,437.24Z" transform="translate(-274.46 -393.05)" style="fill:#bea489"/></svg>