<svg xmlns="http://www.w3.org/2000/svg" width="7.69mm" height="7.14mm" viewBox="0 0 21.78 20.24"><path d="M309,416.51v5.27a.7.7,0,0,1-1,.64l-9.9-5-9.89,5a.69.69,0,0,1-1-.64v-5.27a.74.74,0,0,1,.36-.64l10.53-5.27,10.54,5.27A.76.76,0,0,1,309,416.51Z" transform="translate(-287.18 -410.6)" style="fill:#fff"/><path d="M305.61,426.71v3.65a.48.48,0,0,1-.69.44l-6.85-3.45-6.85,3.45a.48.48,0,0,1-.69-.44v-3.65a.5.5,0,0,1,.25-.44l7.29-3.65,7.3,3.65A.49.49,0,0,1,305.61,426.71Z" transform="translate(-287.18 -410.6)" style="fill:#fff"/></svg>