<svg xmlns="http://www.w3.org/2000/svg" width="7.74mm" height="7mm" viewBox="0 0 21.93 19.85"><path d="M308.41,420.15H295.79l3.39-3.17a.63.63,0,0,0,0-.9.64.64,0,0,0-.9,0L294,420.14a.61.61,0,0,0-.29.19.64.64,0,0,0-.07.71.67.67,0,0,0,.29.31l4.43,4.15a.63.63,0,0,0,.43.17h0a.63.63,0,0,0,.47-.2.64.64,0,0,0,0-.9l-3.37-3.14h12.6a.63.63,0,0,0,.63-.63A.64.64,0,0,0,308.41,420.15Z" transform="translate(-287.11 -410.85)" style="fill:#444a66"/><path d="M297,429.43a8.66,8.66,0,0,1,0-17.31.64.64,0,0,0,.64-.63.64.64,0,0,0-.64-.64h0a9.93,9.93,0,0,0,0,19.85.64.64,0,0,0,.64-.63A.64.64,0,0,0,297,429.43Z" transform="translate(-287.11 -410.85)" style="fill:#444a66"/></svg>