<svg xmlns="http://www.w3.org/2000/svg" width="17.81mm" height="13.62mm" viewBox="0 0 50.49 38.62"><path d="M298.06,440.1H274.3a2.88,2.88,0,0,1-.72-.06,1,1,0,0,1-.74-1.07,1,1,0,0,1,1-.9c.43,0,.87,0,1.3,0,.77,0,.78,0,.78-.8v-9.77c0-.77,0-1.53,0-2.29a1.18,1.18,0,0,1,.82-1.24c1-.38,2-.8,2.94-1.16a.73.73,0,0,0,.57-.83c0-1.18,0-2.36,0-3.54,0-.78.17-1,.91-1.32,2.82-1.14,5.64-2.29,8.47-3.41a.78.78,0,0,0,.62-.89c0-1.13,0-2.25,0-3.38a1.09,1.09,0,0,1,.83-1.22l16.26-6.58a1.45,1.45,0,0,1,1.24,0l10.69,4.58a1.22,1.22,0,0,1,.78,1.31v29.8c0,.74,0,.74.77.74.5,0,1,0,1.51,0a1,1,0,0,1,1,.94,1.07,1.07,0,0,1-1,1.09H298.06Zm-5.79-27.52c.88-.35,1.67-.64,2.44-1a1.38,1.38,0,0,1,1.19,0c2.35,1,4.7,2.05,7.07,3a1.52,1.52,0,0,1,1.08,1.65c0,6.46,0,12.93,0,19.39,0,.64,0,1.28,0,1.92,0,.37.13.49.49.48.55,0,1.11,0,1.66,0s.67,0,.67-.69V404.05c-.25.09-.41.14-.57.21l-4.81,1.94q-4.37,1.76-8.71,3.53c-.18.07-.47.24-.47.38C292.25,410.9,292.27,411.69,292.27,412.58Zm2,1.51a.89.89,0,0,0-.25,0l-11.45,4.63c-.11.05-.28.16-.29.25,0,.87,0,1.74,0,2.71.73-.29,1.33-.58,2-.77a1.68,1.68,0,0,1,1,0c1.72.69,3.42,1.43,5.12,2.16a1,1,0,0,1,.62.88c0,.26,0,.52,0,.78q0,6.38,0,12.75c0,.41.11.59.55.57.66,0,1.32,0,2,0s.71,0,.71-.7V414.09Zm-10.51,9.32a2.11,2.11,0,0,0-.31.06c-1.74.7-3.47,1.38-5.19,2.11a.72.72,0,0,0-.28.57c0,3.77,0,7.55,0,11.33,0,.45.11.6.58.59,1.52,0,3,0,4.57,0,.52,0,.67-.13.66-.66,0-4.47,0-8.94,0-13.41ZM309,434.1a.46.46,0,0,0-.07.18c0,1.14,0,2.28,0,3.43,0,.36.24.35.49.35h8.06c.36,0,.49-.13.48-.49q0-1.17,0-2.34c0-.38-.1-.53-.52-.56-2.18-.13-4.35-.31-6.53-.47C310.28,434.16,309.64,434.13,309,434.1Zm-.08-6c0,1.29,0,2.48,0,3.68,0,.09.24.26.38.27,2.71.22,5.42.41,8.13.62.36,0,.51-.06.5-.44q0-1.17,0-2.34c0-.4-.13-.54-.52-.59-1.87-.25-3.73-.53-5.6-.8Zm9-.8c0-1,0-1.85,0-2.72,0-.46-.17-.6-.57-.68-2-.43-4.08-.88-6.13-1.33l-2.29-.47V426Zm-9-11.22c0,1.28,0,2.45,0,3.63,0,.12.24.31.4.35,2.73.61,5.47,1.2,8.21,1.79a2.49,2.49,0,0,0,.39,0c0-.93,0-1.81,0-2.69,0-.37-.13-.51-.47-.6-1.73-.49-3.46-1-5.18-1.51Zm0-12c0,1.28,0,2.43,0,3.59,0,.13.24.31.4.37,2.68,1,5.35,2,8,2.94l.57.18c0-.93,0-1.76,0-2.58a.77.77,0,0,0-.57-.89c-1.49-.61-3-1.26-4.44-1.89Zm9,12.48c0-.93,0-1.78,0-2.62a.64.64,0,0,0-.52-.74l-7.59-2.77c-.27-.1-.55-.19-.88-.29,0,.23,0,.39,0,.56,0,.92,0,1.83,0,2.75a.55.55,0,0,0,.49.64c2,.57,4,1.17,6.07,1.76ZM296.32,434.9c0,1,0,2,0,2.9,0,.09.26.25.41.25,1.61,0,3.22,0,4.83,0,.28,0,.4-.09.4-.39,0-.64,0-1.28,0-1.92,0-.28-.08-.41-.38-.43l-3.46-.3C297.56,435,297,434.94,296.32,434.9Zm5.65-1.61c0-.81,0-1.54,0-2.26,0-.35-.15-.44-.45-.49l-2.9-.5-2.32-.37c0,.94,0,1.8,0,2.66,0,.42.17.53.55.55.71,0,1.41.11,2.12.17Zm0-4.75c0-.8,0-1.5,0-2.21,0-.36-.15-.48-.45-.56l-4.83-1.23a1.67,1.67,0,0,0-.39,0c0,.83,0,1.62,0,2.41,0,.53.17.72.67.73a6.45,6.45,0,0,1,.86.15Zm-5.66-9.3c0,1,0,1.92,0,2.81,0,.13.24.32.4.36.88.25,1.77.47,2.66.7l2.58.66c0-.78,0-1.49,0-2.19,0-.33-.12-.45-.41-.54-.91-.3-1.8-.62-2.7-.92ZM302,419c0-.76,0-1.41,0-2.07a.58.58,0,0,0-.43-.65c-1.58-.66-3.14-1.34-4.71-2-.15-.07-.31-.11-.53-.19,0,1,0,1.82,0,2.68,0,.15.2.35.35.41.59.24,1.2.43,1.81.64Zm-16.06,15.53c-.05.09-.09.13-.09.18,0,1,0,2,0,3,0,.12.25.32.39.32.79,0,1.59,0,2.39,0,.26,0,.37-.09.36-.36,0-.8,0-1.6,0-2.39a.48.48,0,0,0-.24-.37C287.78,434.78,286.83,434.66,285.91,434.53Zm3-1.66a1.22,1.22,0,0,0,.06-.21c0-.62,0-1.24,0-1.86,0-1,0-1-.92-1.23l-2.24-.63c0,1.14,0,2.19,0,3.24,0,.1.17.25.28.27C287,432.61,287.94,432.73,288.89,432.87Zm.07-5.18c0-.9,0-1.73,0-2.56a.53.53,0,0,0-.39-.57c-.78-.32-1.56-.67-2.34-1a4,4,0,0,0-.44-.11c0,1.07,0,2.07,0,3.07a.4.4,0,0,0,.2.31C287,427.12,287.93,427.39,289,427.69Z" transform="translate(-272.84 -401.49)" style="fill:#3d4360"/></svg>