<svg xmlns="http://www.w3.org/2000/svg" width="9.56mm" height="13.78mm" viewBox="0 0 27.1 39.07"><rect width="27.1" height="39.07" style="fill:#dec07c"/><path d="M44.24,496.19l-2.31,1.62-2.32-1.62a.84.84,0,0,0-1.17.21.85.85,0,0,0,.21,1.17l2.8,1.95a.84.84,0,0,0,.48.16.86.86,0,0,0,.48-.16l2.8-1.95a.84.84,0,0,0-1-1.38Z" transform="translate(-28.38 -477.43)" style="fill:#010101"/><path d="M47.41,493.59l-4.47-2.68a1.93,1.93,0,0,0-2,0l-4.48,2.68a2,2,0,0,0-.95,1.68v6.08a2,2,0,0,0,2,2H46.4a2,2,0,0,0,2-2v-6.08A2,2,0,0,0,47.41,493.59Zm-.73,7.76a.27.27,0,0,1-.28.28H37.45a.28.28,0,0,1-.28-.28v-6.08a.28.28,0,0,1,.14-.24l4.47-2.68a.28.28,0,0,1,.15,0,.23.23,0,0,1,.14,0L46.55,495a.29.29,0,0,1,.13.24Z" transform="translate(-28.38 -477.43)" style="fill:#010101"/></svg>