<svg xmlns="http://www.w3.org/2000/svg" width="9.56mm" height="13.78mm" viewBox="0 0 27.1 39.07"><rect width="27.1" height="39.07" style="fill:#dec07c"/><path d="M45.3,487.54H38.56a2,2,0,0,0-2,2v14.82a2,2,0,0,0,2,2H45.3a2,2,0,0,0,2-2V489.56A2,2,0,0,0,45.3,487.54ZM46,504.38a.64.64,0,0,1-.67.68H38.56a.64.64,0,0,1-.68-.68V489.56a.64.64,0,0,1,.68-.68h.67v.21a1.81,1.81,0,0,0,1.82,1.81H42.8a1.81,1.81,0,0,0,1.82-1.81v-.21h.68a.64.64,0,0,1,.67.68Z" transform="translate(-28.38 -477.43)" style="fill:#010101"/><path d="M44,502.36h-4a.68.68,0,1,0,0,1.35h4a.68.68,0,0,0,0-1.35Z" transform="translate(-28.38 -477.43)" style="fill:#010101"/></svg>