<svg xmlns="http://www.w3.org/2000/svg" width="9.56mm" height="13.78mm" viewBox="0 0 27.1 39.07"><rect width="27.1" height="39.07" style="fill:#dec07c"/><path d="M42.22,491.26a7.09,7.09,0,0,1,.78.14,4.26,4.26,0,0,1,3.16,3.4,4.81,4.81,0,0,1-.31,2.52,12.45,12.45,0,0,1-1.64,2.91,22.51,22.51,0,0,1-1.89,2.25.48.48,0,0,1-.65.12.73.73,0,0,1-.09-.08,18.47,18.47,0,0,1-3.17-4.29,6.57,6.57,0,0,1-.71-2,4.26,4.26,0,0,1,3.86-4.93l.08,0ZM40,495.54a1.91,1.91,0,1,0,1.93-1.9A1.9,1.9,0,0,0,40,495.54Z" transform="translate(-28.38 -477.43)"/></svg>