<svg xmlns="http://www.w3.org/2000/svg" width="7.06mm" height="7.06mm" viewBox="0 0 20 20"><path d="M288.07,414a3.25,3.25,0,0,1,3.25-3.25h10.5a3.24,3.24,0,0,1,3.25,3.25v4.75h-1.5V414a1.75,1.75,0,0,0-1.75-1.75h-10.5a1.75,1.75,0,0,0-1.75,1.75v11.5a1.76,1.76,0,0,0,1.75,1.75h.75v.25a4.35,4.35,0,0,0,.19,1.25h-.94a3.26,3.26,0,0,1-3.25-3.25Zm4.75-.25a.75.75,0,1,0,0,1.5h7.5a.75.75,0,0,0,0-1.5Zm1.25,3.25a.75.75,0,0,1,.75-.75h5.5a.75.75,0,0,1,0,1.5h-5.5A.76.76,0,0,1,294.07,417Zm-1,6a3.25,3.25,0,0,1,3.25-3.25h8.5a3.24,3.24,0,0,1,3.25,3.25v4.5a3.25,3.25,0,0,1-3.25,3.25h-8.5a3.26,3.26,0,0,1-3.25-3.25Zm3.25-1.75a1.74,1.74,0,0,0-1.27.55l5.52,3.55,5.53-3.55a1.74,1.74,0,0,0-1.28-.55Zm-1.75,6.25a1.76,1.76,0,0,0,1.75,1.75h8.5a1.75,1.75,0,0,0,1.75-1.75v-4.22l-5.59,3.6a.74.74,0,0,1-.81,0l-5.6-3.6Z" transform="translate(-288.07 -410.78)" style="fill:#dec07c"/></svg>