<svg xmlns="http://www.w3.org/2000/svg" width="5.6mm" height="4.48mm" viewBox="0 0 15.87 12.7"><path d="M292.72,414.43h10.71a2.58,2.58,0,0,1,2.58,2.43v7.69a2.57,2.57,0,0,1-2.43,2.57H292.72a2.59,2.59,0,0,1-2.58-2.44V417a2.58,2.58,0,0,1,2.43-2.58Zm12.1,4.26-6.47,3.41a.62.62,0,0,1-.48,0l-.07,0-6.47-3.41v5.86a1.38,1.38,0,0,0,1.27,1.38h10.83a1.4,1.4,0,0,0,1.39-1.28v-6Zm-1.39-3.07H292.72a1.39,1.39,0,0,0-1.39,1.27v.46l6.74,3.55,6.75-3.55V417a1.39,1.39,0,0,0-1.27-1.39Z" transform="translate(-290.14 -414.43)" style="fill:#3d4360"/></svg>