<svg xmlns="http://www.w3.org/2000/svg" width="7.05mm" height="7.41mm" viewBox="0 0 20 21"><path d="M296.07,423.77a2.53,2.53,0,0,1,.5-1.5h-6.24a2.25,2.25,0,0,0-2.25,2.25v.58a3.76,3.76,0,0,0,.89,2.44c1.57,1.83,4,2.73,7.1,2.73h.05a2.65,2.65,0,0,1-.05-.5v-1c-2.74,0-4.7-.74-5.95-2.21a2.23,2.23,0,0,1-.54-1.46v-.58a.75.75,0,0,1,.75-.75Z" transform="translate(-288.08 -410.28)" style="fill:#dec07c"/><path d="M296.07,410.28a5,5,0,1,1-5,5A5,5,0,0,1,296.07,410.28Zm0,1.5a3.5,3.5,0,1,0,3.5,3.5A3.5,3.5,0,0,0,296.07,411.78Z" transform="translate(-288.08 -410.28)" style="fill:#dec07c"/><path d="M302.58,427.2l-5.49-3.2a2,2,0,0,1,2-1.73h7a2,2,0,0,1,2,2Z" transform="translate(-288.08 -410.28)" style="fill:#dec07c"/><path d="M302.81,428.21l5.26-2.83v3.89a2,2,0,0,1-2,2h-7a2,2,0,0,1-2-2v-4.13l5.25,3.07A.5.5,0,0,0,302.81,428.21Z" transform="translate(-288.08 -410.28)" style="fill:#dec07c"/></svg>