<svg xmlns="http://www.w3.org/2000/svg" width="13.73mm" height="9.08mm" viewBox="0 0 38.91 25.74"><path d="M53.15,497.21l4.33,3.94,3.9-4.36L60,495.55l-1.94,2.14a16.68,16.68,0,0,0-7.93-10.93,16,16,0,0,0-13.35-1.56,16.24,16.24,0,0,0-9.48,7.55,16,16,0,0,0-2.25,8.35h1.82a14.86,14.86,0,0,1,15.69-14.76A14.28,14.28,0,0,1,51,489.62c2.45,2,4.84,5.72,4.9,7.56l-1.5-1.35Z" transform="translate(-22.48 -484.41)" style="fill:#cbb06f"/><path d="M25.68,503.63a3.26,3.26,0,0,0,0,6.52,3.26,3.26,0,1,0,0-6.52Z" transform="translate(-22.48 -484.41)" style="fill:#cbb06f"/><path d="M57.38,503.63a3.3,3.3,0,0,0-3.33,3.24,3.33,3.33,0,0,0,3.23,3.28,3.26,3.26,0,0,0,.1-6.52Z" transform="translate(-22.48 -484.41)" style="fill:#cbb06f"/></svg>