<svg xmlns="http://www.w3.org/2000/svg" width="10.73mm" height="6.35mm" viewBox="0 0 30.41 18.01"><path d="M155.54,662.85l-1.45-4.16a.44.44,0,0,0-.41-.29h-5a.44.44,0,0,0-.44.44v10.68h-4.39a2,2,0,0,0-1.14-1.38.42.42,0,0,0,.36-.42.44.44,0,0,0-.43-.44H125.59a.44.44,0,0,0,0,.88h2.06a2,2,0,1,0,2.54,2.66,2,2,0,1,0,2.54-2.66h8.44a2,2,0,1,0,2.7,2.21h4.47a2,2,0,0,0,3.82,0l.12,0h2.85a.44.44,0,0,0,.43-.44v-7A.34.34,0,0,0,155.54,662.85ZM128.44,671a1.09,1.09,0,1,1,1.09-1.09A1.08,1.08,0,0,1,128.44,671Zm3.49,0A1.09,1.09,0,1,1,133,670,1.08,1.08,0,0,1,131.93,671Zm-1.74-2a2,2,0,0,0-.95-.91h1.9A2,2,0,0,0,130.19,669.08ZM142,671a1.09,1.09,0,1,1,1.09-1.09A1.08,1.08,0,0,1,142,671Zm8.29,0a1.09,1.09,0,1,1,1.09-1.09A1.09,1.09,0,0,1,150.25,671Zm2-1.52-.12,0a2,2,0,0,0-1.91-1.54,1.93,1.93,0,0,0-1.11.35v-4.68h4a.44.44,0,0,0,0-.87h-4v-3.53h4.23l1.32,3.8v3h-1.11a.43.43,0,0,0-.43.43.44.44,0,0,0,.43.44h1.11v2.61Z" transform="translate(-125.16 -653.9)" style="fill:#3d4460"/><path d="M125.83,665.85h20.4a.44.44,0,0,0,.44-.44V654.34a.44.44,0,0,0-.44-.44h-20.4a.44.44,0,0,0-.43.44v11.07A.44.44,0,0,0,125.83,665.85Zm.44-11.07H145.8V665h-1.66v-7.63a.44.44,0,0,0-.43-.44.44.44,0,0,0-.44.44V665H141.6v-7.63a.44.44,0,0,0-.44-.44.44.44,0,0,0-.43.44V665h-1.67v-7.63a.44.44,0,1,0-.88,0V665h-1.67v-7.63a.44.44,0,0,0-.43-.44.44.44,0,0,0-.44.44V665H134v-7.63a.44.44,0,0,0-.44-.44.44.44,0,0,0-.43.44V665h-1.68v-7.63a.44.44,0,0,0-.43-.44.44.44,0,0,0-.44.44V665h-1.67v-7.63a.44.44,0,0,0-.44-.44.44.44,0,0,0-.43.44V665h-1.74Z" transform="translate(-125.16 -653.9)" style="fill:#3d4460"/></svg>