<svg xmlns="http://www.w3.org/2000/svg" width="10.37mm" height="6.34mm" viewBox="0 0 29.39 17.98"><path d="M154.93,662.4a.44.44,0,1,0-.62-.62l-1.9,1.9h-6.9v-1.37a4.07,4.07,0,0,0-.36-1.67h2.15a.44.44,0,0,0,.43-.44.43.43,0,0,0-.43-.43h-2.67a4.15,4.15,0,0,0-3.27-1.6h-.59v-3.82a.44.44,0,0,0-.87,0v3.82h-.59a4.15,4.15,0,0,0-3.27,1.6h-2.62a.43.43,0,0,0-.43.43.44.44,0,0,0,.43.44h2.1a4.07,4.07,0,0,0-.36,1.67v1.37h-6.85l-1.9-1.9a.44.44,0,1,0-.62.62l2,2a.5.5,0,0,0,.28.12,2.32,2.32,0,1,0,4.11,1.45,2.26,2.26,0,0,0-.52-1.44h3.47v3.19a4.15,4.15,0,0,0,4.15,4.15h2.05a4.15,4.15,0,0,0,4.15-4.15v-3.19H149a2.26,2.26,0,0,0-.52,1.44,2.32,2.32,0,1,0,4.64,0,2.27,2.27,0,0,0-.53-1.45.5.5,0,0,0,.28-.12Zm-25,5.05a1.45,1.45,0,1,1,1.45-1.45A1.45,1.45,0,0,1,129.89,667.45Zm14.75.3a3.28,3.28,0,0,1-3.28,3.28h-2.05a3.28,3.28,0,0,1-3.28-3.28v-5.44a3.28,3.28,0,0,1,3.28-3.27h2.05a3.28,3.28,0,0,1,3.28,3.27Zm6.19-.3a1.45,1.45,0,1,1,1.45-1.45A1.45,1.45,0,0,1,150.83,667.45Z" transform="translate(-125.66 -653.92)" style="fill:#3d4460"/><path d="M142.4,662.67h-4.08a.44.44,0,0,0-.44.43.44.44,0,0,0,.44.44h4.08a.44.44,0,0,0,.44-.44A.44.44,0,0,0,142.4,662.67Z" transform="translate(-125.66 -653.92)" style="fill:#3d4460"/></svg>