<svg xmlns="http://www.w3.org/2000/svg" width="18.07mm" height="12.28mm" viewBox="0 0 51.23 34.8"><path d="M120.94,678V659l-2.67,3.26h1a1.13,1.13,0,0,1,1.1,1.1,1.1,1.1,0,0,1-1.08,1.12c-1.13,0-2.27,0-3.4,0a1.07,1.07,0,0,1-1-.65,1.1,1.1,0,0,1,.18-1.22L118,659q1.58-1.92,3.14-3.85a1.28,1.28,0,0,1,1.09-.47c1.43,0,2.86,0,4.29,0,.41,0,.48-.16.48-.52q0-3.62,0-7.21c0-1.14.33-1.48,1.45-1.48h23.93c1,0,1.38.39,1.38,1.4V652c0,1-.41,1.4-1.39,1.4h-7.06c-1,0-1.37-.4-1.37-1.36v-4.3h-3.3v1c0,.84,0,1.68,0,2.51a1.08,1.08,0,0,1-1.11,1.13,1.09,1.09,0,0,1-1.1-1.15c0-1.13,0-2.26,0-3.39a.79.79,0,0,0,0-.13h-3.51v1.62c1.05-.14,1.73.59,2.5,1.09a1,1,0,0,1,.24,1.44,1,1,0,0,1-1.4.39,1.6,1.6,0,0,0-2,0,1.08,1.08,0,0,1-1.61-1c0-1.16,0-2.33,0-3.53h-3.31c0,.19,0,.38,0,.56,0,2.4,0,4.81,0,7.21,0,1-.37,1.39-1.38,1.39h-4.44l-.15,0v21H144.6v-.63q0-7.57,0-15.15c0-.19,0-.39,0-.58a1.09,1.09,0,0,1,.75-1.13,1.11,1.11,0,0,1,1.3.4c1.17,1.43,2.35,2.85,3.5,4.3a1.26,1.26,0,0,0,1.13.54c2.25,0,4.5,0,6.74,0,1,0,1.41.37,1.41,1.42v11.71c0,1-.39,1.41-1.42,1.41H117.52a1.16,1.16,0,0,1-1.25-.83,1.13,1.13,0,0,1,1.16-1.42c1,0,1.95,0,2.93,0Z" transform="translate(-114.79 -645.5)" style="fill:#d4cbba"/><path d="M146.77,654.7c3.75,0,7.49,0,11.24,0a1.62,1.62,0,0,1,1.38.65q2.9,3.57,5.83,7.11a1.25,1.25,0,0,1,.28,1.4,1.18,1.18,0,0,1-1.22.62c-4,0-8.08,0-12.12,0a1.55,1.55,0,0,1-1.3-.62c-1.78-2.19-3.58-4.37-5.35-6.56a1,1,0,0,0-.84-.39c-3.12,0-6.24,0-9.35,0a1.12,1.12,0,1,1,0-2.22h11.44Z" transform="translate(-114.79 -645.5)" style="fill:#d4cbba"/><path d="M139.52,674.56c-.75,0-1.5,0-2.25,0s-1.27-.45-1.26-1.14a1.11,1.11,0,0,1,1.25-1.11h4.6a1.13,1.13,0,1,1,0,2.25C141.09,674.57,140.3,674.56,139.52,674.56Z" transform="translate(-114.79 -645.5)" style="fill:#d4cbba"/><path d="M163.79,680.3c-.35,0-.7,0-1,0a1.12,1.12,0,1,1,0-2.24c.71,0,1.43,0,2.14,0a1.09,1.09,0,0,1,1.11,1.13,1.11,1.11,0,0,1-1.13,1.12Z" transform="translate(-114.79 -645.5)" style="fill:#d4cbba"/></svg>