<svg xmlns="http://www.w3.org/2000/svg" width="11.36mm" height="6.24mm" viewBox="0 0 32.2 17.69"><path d="M130.35,668.8h-.92a.44.44,0,0,0,0,.88h.92a.44.44,0,0,0,0-.88Z" transform="translate(-124.26 -654.06)" style="fill:#3d4460"/><path d="M131.56,666.44v.87a.44.44,0,0,0,.44.43.43.43,0,0,0,.43-.43v-.87A.44.44,0,0,0,132,666,.44.44,0,0,0,131.56,666.44Z" transform="translate(-124.26 -654.06)" style="fill:#3d4460"/><path d="M132,668.13a.44.44,0,0,0-.44.43v.87a.44.44,0,0,0,.44.44.43.43,0,0,0,.43-.44v-.87A.43.43,0,0,0,132,668.13Z" transform="translate(-124.26 -654.06)" style="fill:#3d4460"/><path d="M156,662.47h-7.83v-8a.44.44,0,0,0-.43-.44H132.09a.44.44,0,0,0-.43.44v8h-7a.44.44,0,0,0-.44.44v8.41a.44.44,0,0,0,.44.44H156a.44.44,0,0,0,.44-.44v-8.41A.44.44,0,0,0,156,662.47Zm-3.86.87h1.49v3.1h-1.49Zm-8.27-8.41h1.5V658h-1.5Zm-1.89,0h1v3.53a.44.44,0,0,0,.43.44h2.37a.44.44,0,0,0,.44-.44v-3.53h1.06v7.54H142Zm-9.47,0h8.6v7.54h-8.6Zm4,8.41H138v3.1h-1.5Zm-2.75,7.54h-8.61v-7.54h8.61Zm.87-7.54h1v3.53a.44.44,0,0,0,.44.44h2.37a.44.44,0,0,0,.43-.44v-3.53h1.06v7.54h-5.31Zm14.79,7.54h-8.6v-7.54h8.6Zm6.19,0h-5.32v-7.54h1v3.53a.44.44,0,0,0,.44.44h2.37a.44.44,0,0,0,.44-.44v-3.53h1.06Z" transform="translate(-124.26 -654.06)" style="fill:#3d4460"/><path d="M146,668.8h-.92a.44.44,0,0,0,0,.88H146a.44.44,0,0,0,0-.88Z" transform="translate(-124.26 -654.06)" style="fill:#3d4460"/><path d="M147.22,666.44v.87a.44.44,0,0,0,.88,0v-.87a.44.44,0,1,0-.88,0Z" transform="translate(-124.26 -654.06)" style="fill:#3d4460"/><path d="M147.66,668.13a.44.44,0,0,0-.44.43v.87a.44.44,0,0,0,.88,0v-.87A.44.44,0,0,0,147.66,668.13Z" transform="translate(-124.26 -654.06)" style="fill:#3d4460"/><path d="M137.75,660.39h-.92a.44.44,0,0,0,0,.88h.92a.44.44,0,0,0,0-.88Z" transform="translate(-124.26 -654.06)" style="fill:#3d4460"/><path d="M139.39,657.59a.43.43,0,0,0-.43.44v.87a.43.43,0,0,0,.43.43.44.44,0,0,0,.44-.43V658A.44.44,0,0,0,139.39,657.59Z" transform="translate(-124.26 -654.06)" style="fill:#3d4460"/><path d="M139.39,659.72a.43.43,0,0,0-.43.43V661a.44.44,0,0,0,.43.44.44.44,0,0,0,.44-.44v-.87A.44.44,0,0,0,139.39,659.72Z" transform="translate(-124.26 -654.06)" style="fill:#3d4460"/></svg>