<svg xmlns="http://www.w3.org/2000/svg" width="10.97mm" height="5.91mm" viewBox="0 0 31.11 16.75"><path d="M155.5,670.41c-1.34,0-1.67-1.93-1.67-1.95a.43.43,0,0,0-.38-.36.43.43,0,0,0-.45.25c-.25.58-1.15,2.06-2.25,2.06a1.35,1.35,0,0,1-.76-.25l5.45-6.76a.41.41,0,0,0,.05-.46.43.43,0,0,0-.39-.25h-1.92v-7.47a.43.43,0,0,0-.44-.43h-18a.43.43,0,0,0-.43.43v7.47h-1.45v-5.47a.44.44,0,0,0-.44-.44h-.94V655a.44.44,0,0,0-.44-.44.44.44,0,0,0-.43.44v1.81h-2.76a.44.44,0,0,0-.43.44v5.47h-1.56a.44.44,0,0,0-.44.44v1.55a.46.46,0,0,0,0,.2l1.83,3.64c-.08.18-.23.5-.47,1s-1.15.81-1.69.93a.44.44,0,0,0-.32.53.42.42,0,0,0,.42.33h.1c.18,0,1.79-.43,2.27-1.39l.2-.41a3.14,3.14,0,0,0,2.44,1.6,3.71,3.71,0,0,0,2.69-1.71,2.71,2.71,0,0,0,5,.07,3.31,3.31,0,0,0,2.65,1.85,3.05,3.05,0,0,0,2.51-1.8,3.51,3.51,0,0,0,2.71,1.8,3,3,0,0,0,2.47-1.72,4.26,4.26,0,0,0,.77,1h0a2.39,2.39,0,0,0,1.64.71,3.31,3.31,0,0,0,2.53-1.66,2.49,2.49,0,0,0,2.22,1.66.44.44,0,0,0,.44-.43A.44.44,0,0,0,155.5,670.41Zm-11.31-7.72v-3.08h8.12v3.08Zm8.12-4h-8.12v-3.08h8.12Zm-9-3.08v3.08H135.2v-3.08Zm-8.12,4h8.12v3.08H135.2Zm-6.89-2H132v1.89h-1.2a.44.44,0,0,0-.44.43.44.44,0,0,0,.44.44H132v2.28h-3.7Zm20,10.44a.43.43,0,0,0-.41.3s-.69,2-2,2-2.35-2-2.36-2.06a.45.45,0,0,0-.42-.26.43.43,0,0,0-.39.3s-.69,2-2.05,2-2.2-2-2.21-2a.44.44,0,0,0-.39-.28.45.45,0,0,0-.41.25c-.26.52-1.15,1.89-2.14,1.89s-1.86-1.36-2.11-1.89a.45.45,0,0,0-.38-.25.48.48,0,0,0-.4.23c-.29.52-1.27,1.87-2.33,1.87-.85,0-1.49-.83-1.82-1.38l-2.13-4.23v-1h27.87l-4.83,6a5.33,5.33,0,0,1-.63-1.16A.41.41,0,0,0,148.32,668.09Z" transform="translate(-124.83 -654.53)" style="fill:#3d4460"/><path d="M149.85,665.37a.44.44,0,0,0-.44-.43h-1.6a.43.43,0,0,0-.43.43.44.44,0,0,0,.43.44h1.6A.44.44,0,0,0,149.85,665.37Z" transform="translate(-124.83 -654.53)" style="fill:#3d4460"/></svg>