<svg xmlns="http://www.w3.org/2000/svg" width="6.69mm" height="7.06mm" viewBox="0 0 18.95 20"><path d="M301.82,410.78a2.24,2.24,0,0,1,2.25,2.25v15.5a2.25,2.25,0,0,1-2.25,2.25h-7.5a2.25,2.25,0,0,1-2.25-2.25V413a2.25,2.25,0,0,1,2.25-2.25Zm0,1.5h-7.5a.75.75,0,0,0-.75.75v15.5a.76.76,0,0,0,.75.75h7.5a.75.75,0,0,0,.75-.75V413A.74.74,0,0,0,301.82,412.28Zm-2.5,14a.75.75,0,0,1,0,1.5h-2.5a.75.75,0,1,1,0-1.5Zm7.41-9.37,0,.09.58,1.45a2.74,2.74,0,0,1-.24,2.52l-.11.16-.15.2a1.25,1.25,0,0,0-.21,1.07l.05.14.58,1.46a.75.75,0,0,1-1.35.65l0-.1-.58-1.45a2.75,2.75,0,0,1,.24-2.52l.11-.15.15-.2a1.27,1.27,0,0,0,.21-1.08L306,419l-.58-1.46a.74.74,0,0,1,.42-1,.76.76,0,0,1,.87.23Zm-16.5,0,0,.09.58,1.45a2.74,2.74,0,0,1-.24,2.52l-.11.16-.15.2a1.25,1.25,0,0,0-.21,1.07l.05.14.58,1.46a.75.75,0,0,1-1.35.65l0-.1-.58-1.45a2.75,2.75,0,0,1,.24-2.52l.11-.15.15-.2a1.27,1.27,0,0,0,.21-1.08l-.05-.14-.58-1.46a.74.74,0,0,1,.42-1,.76.76,0,0,1,.87.23Z" transform="translate(-288.6 -410.78)" style="fill:#dec27c"/></svg>