<svg xmlns="http://www.w3.org/2000/svg" width="7.58mm" height="5.47mm" viewBox="0 0 21.5 15.5"><path d="M293.32,420h8.19L300,418.56a.75.75,0,0,1,0-1.06.74.74,0,0,1,1.06,0l2.75,2.75a.66.66,0,0,1,.17.24.88.88,0,0,1,.05.29.82.82,0,0,1-.05.28.7.7,0,0,1-.17.25l-2.75,2.75a.75.75,0,0,1-.53.22.79.79,0,0,1-.53-.22.75.75,0,0,1,0-1.06l1.47-1.47h-8.19a.75.75,0,1,1,0-1.5Z" transform="translate(-287.32 -413.03)" style="fill:#3d4360"/><path d="M287.32,417.78v6a4.76,4.76,0,0,0,4.75,4.75h12a4.75,4.75,0,0,0,4.75-4.75v-6a4.75,4.75,0,0,0-4.75-4.75h-12A4.76,4.76,0,0,0,287.32,417.78Zm1.5,0a3.25,3.25,0,0,1,3.25-3.25h12a3.24,3.24,0,0,1,3.25,3.25v6a3.25,3.25,0,0,1-3.25,3.25h-12a3.26,3.26,0,0,1-3.25-3.25Z" transform="translate(-287.32 -413.03)" style="fill:#3d4360"/></svg>