<svg xmlns="http://www.w3.org/2000/svg" width="34.65mm" height="33.91mm" viewBox="0 0 98.22 96.12"><path d="M135.36,711h48.23c1.83,0,2.91-.38,3.75-1.3a4.55,4.55,0,0,0,1-3.29c0-3.47,0-7,0-10.42,0-7.74,0-15.75,0-23.62A18.92,18.92,0,0,0,188,669a1.57,1.57,0,0,0-1.24-1.33,12.19,12.19,0,0,0-2.78-.44c-6.17,0-12.44,0-18.5,0H148.64c-1.39,0-2.8,0-4.16,0-3,0-6.14-.07-9.2,0-3.6.14-3.7.61-4.22,3.27a4.8,4.8,0,0,0-.05.88c0,.1,0,.2,0,.3q0,17.41,0,34.84C131,709.41,132.52,710.93,135.36,711Zm46.24-39.82-21.93,21.19-21.92-21.19ZM135,675.82l1.4-1.32.62.74.66.84a14.52,14.52,0,0,0,1.37,1.6c5.7,5.58,11.44,11.15,17,16.53,2.51,2.43,4.75,2.44,7.27,0l10-9.7,8.57-8.28.59-.55.39-.35,1.52-1.39V707H135Z" transform="translate(-91.21 -614.85)" style="fill:#e1cea1"/><path d="M149.62,618.63c-.41-2.9-.46-3.27-3.37-3.68a12,12,0,0,0-1.69-.09H96.79c-3.53,0-4.45.93-4.47,4.47v34.72c0,3.09,1.45,4.52,4.56,4.52h48.34c2.93,0,4.41-1.5,4.41-4.44V619.2A2.65,2.65,0,0,0,149.62,618.63Zm-6.74.16L121,640l-21.9-21.17Zm2.84,35.88H96.27V621.85L97.74,623l.22.17a6.06,6.06,0,0,1,.53.42l4.18,4.06c4.72,4.57,9.6,9.3,14.38,14,2,1.91,3.47,2.43,5.22,1.77a7.18,7.18,0,0,0,2.29-1.55c4.65-4.45,9.36-9,13.91-13.41l4.79-4.62c.18-.18.37-.34.59-.54l.35-.31,1.52-1.37Z" transform="translate(-91.21 -614.85)" style="fill:#fff"/><path d="M104.58,678.37H93.49a2.51,2.51,0,0,0-1.8.65,1.66,1.66,0,0,0-.48,1.23c0,1.25.85,2,2.31,2H116a2.56,2.56,0,0,0,1.84-.67,1.66,1.66,0,0,0,.47-1.18,2.06,2.06,0,0,0-2.33-2Z" transform="translate(-91.21 -614.85)" style="fill:#e1cea1"/><path d="M162.37,627.67a2,2,0,0,0,1.17,2,4.59,4.59,0,0,0,1.48.2c7.58,0,15.21,0,21.77,0a6.32,6.32,0,0,0,1.17-.09,1.84,1.84,0,0,0,1.45-1.54,1.88,1.88,0,0,0-1-2,4.5,4.5,0,0,0-1.45-.21H165.15a10.22,10.22,0,0,0-1.13.05A2,2,0,0,0,162.37,627.67Z" transform="translate(-91.21 -614.85)" style="fill:#fff"/><path d="M178.62,645.57a2,2,0,0,0-2.2-2c-1.39,0-2.8,0-4.17,0h-7.71a2,2,0,0,0-2.18,1.79,2,2,0,0,0,.54,1.41,2.21,2.21,0,0,0,1.59.64c4,0,8.08,0,12,0A2,2,0,0,0,178.62,645.57Z" transform="translate(-91.21 -614.85)" style="fill:#fff"/><path d="M102,697.8c0,1.21.9,2,2.33,2H116c1.34,0,2.25-.75,2.27-1.81a1.89,1.89,0,0,0-.52-1.39,2.26,2.26,0,0,0-1.64-.63c-1.94,0-3.94,0-6,0l-5.9,0A2,2,0,0,0,102,697.8Z" transform="translate(-91.21 -614.85)" style="fill:#e1cea1"/></svg>