<svg xmlns="http://www.w3.org/2000/svg" width="26.14mm" height="25.15mm" viewBox="0 0 74.09 71.29"><path d="M293.37,387.46H262a1,1,0,0,1,0-2h31.34a1,1,0,0,1,0,2Z" transform="translate(-261.03 -385.13)" style="fill:#bb9f82"/><path d="M277.08,393.28H262a1,1,0,0,1,0-2h15.05a1,1,0,0,1,0,2Z" transform="translate(-261.03 -385.13)" style="fill:#bb9f82"/><path d="M287.72,393.28H282.4a1,1,0,0,1,0-2h5.32a1,1,0,0,1,0,2Z" transform="translate(-261.03 -385.13)" style="fill:#bb9f82"/><path d="M325,397.11a6,6,0,1,1,6-6A6,6,0,0,1,325,397.11Zm0-10a4,4,0,1,0,4,4A4,4,0,0,0,325,387.13Z" transform="translate(-261.03 -385.13)" style="fill:#bb9f82"/><path d="M275.26,449.66h-2.1a1,1,0,0,0,0,2h2.1a1,1,0,0,0,0-2Z" transform="translate(-261.03 -385.13)" style="fill:#3d4460"/><path d="M278,444.23v2a1,1,0,0,0,2,0v-2a1,1,0,0,0-2,0Z" transform="translate(-261.03 -385.13)" style="fill:#3d4460"/><path d="M279,448.1a1,1,0,0,0-1,1v2a1,1,0,0,0,2,0v-2A1,1,0,0,0,279,448.1Z" transform="translate(-261.03 -385.13)" style="fill:#3d4460"/><path d="M334.12,435.13h-18V416.85a1,1,0,0,0-1-1H279.25a1,1,0,0,0-1,1v18.28h-16a1,1,0,0,0-1,1v19.29a1,1,0,0,0,1,1h71.83a1,1,0,0,0,1-1V436.13A1,1,0,0,0,334.12,435.13Zm-8.86,2h3.43v7.09h-3.43Zm-19-19.28h3.43v7.09H306.3Zm-4.32,0h2.32v8.09a1,1,0,0,0,1,1h5.43a1,1,0,0,0,1-1v-8.09h2.43v17.28H302Zm-21.73,0H300v17.28H280.25Zm9.09,19.28h3.43v7.09h-3.43ZM283,454.42H263.29V437.13H283Zm2-17.29h2.32v8.09a1,1,0,0,0,1,1h5.43a1,1,0,0,0,1-1v-8.09h2.44v17.29H285Zm33.91,17.29H299.21V437.13h19.72Zm14.19,0H320.93V437.13h2.33v8.09a1,1,0,0,0,1,1h5.43a1,1,0,0,0,1-1v-8.09h2.43Z" transform="translate(-261.03 -385.13)" style="fill:#3d4460"/><path d="M311.18,449.66h-2.11a1,1,0,0,0,0,2h2.11a1,1,0,0,0,0-2Z" transform="translate(-261.03 -385.13)" style="fill:#3d4460"/><path d="M314,444.23v2a1,1,0,0,0,2,0v-2a1,1,0,0,0-2,0Z" transform="translate(-261.03 -385.13)" style="fill:#3d4460"/><path d="M315,448.1a1,1,0,0,0-1,1v2a1,1,0,0,0,2,0v-2A1,1,0,0,0,315,448.1Z" transform="translate(-261.03 -385.13)" style="fill:#3d4460"/><path d="M292.22,430.37h-2.11a1,1,0,0,0,0,2h2.11a1,1,0,0,0,0-2Z" transform="translate(-261.03 -385.13)" style="fill:#3d4460"/><path d="M296,423.94a1,1,0,0,0-1,1v2a1,1,0,1,0,2,0v-2A1,1,0,0,0,296,423.94Z" transform="translate(-261.03 -385.13)" style="fill:#3d4460"/><path d="M296,428.82a1,1,0,0,0-1,1v2a1,1,0,0,0,2,0v-2A1,1,0,0,0,296,428.82Z" transform="translate(-261.03 -385.13)" style="fill:#3d4460"/></svg>