<svg xmlns="http://www.w3.org/2000/svg" width="24.67mm" height="25.15mm" viewBox="0 0 69.92 71.29"><path d="M295.46,387.46H264.11a1,1,0,0,1,0-2h31.35a1,1,0,0,1,0,2Z" transform="translate(-263.11 -385.13)" style="fill:#bb9f82"/><path d="M279.16,393.28H264.11a1,1,0,0,1,0-2h15.05a1,1,0,1,1,0,2Z" transform="translate(-263.11 -385.13)" style="fill:#bb9f82"/><path d="M289.8,393.28h-5.32a1,1,0,0,1,0-2h5.32a1,1,0,0,1,0,2Z" transform="translate(-263.11 -385.13)" style="fill:#bb9f82"/><path d="M327.05,397.11a6,6,0,1,1,6-6A6,6,0,0,1,327.05,397.11Zm0-10a4,4,0,1,0,4,4A4,4,0,0,0,327.05,387.13Z" transform="translate(-263.11 -385.13)" style="fill:#bb9f82"/><path d="M332.88,435.64l-3.32-9.53a1,1,0,0,0-.95-.68H317.2a1,1,0,0,0-1,1v24.5h-10l-.09,0a4.51,4.51,0,0,0-2.62-3.15,1,1,0,0,0-.17-2H264.21a1,1,0,0,0,0,2h4.72a4.48,4.48,0,1,0,5.82,6.1,4.48,4.48,0,1,0,5.82-6.1h19.36a4.49,4.49,0,1,0,6.2,5.08l.09,0h10.16a4.49,4.49,0,0,0,8.76-.05,1.09,1.09,0,0,0,.26.05h6.54a1,1,0,0,0,1-1V436A.92.92,0,0,0,332.88,435.64Zm-62.13,18.78a2.49,2.49,0,1,1,2.49-2.49A2.5,2.5,0,0,1,270.75,454.42Zm8,0a2.49,2.49,0,1,1,2.49-2.49A2.5,2.5,0,0,1,278.75,454.42Zm-4-4.49a4.49,4.49,0,0,0-2.18-2.1h4.36A4.49,4.49,0,0,0,274.75,449.93Zm27,4.49a2.49,2.49,0,1,1,2.49-2.49A2.5,2.5,0,0,1,301.75,454.42Zm19,0a2.49,2.49,0,1,1,2.49-2.49A2.5,2.5,0,0,1,320.75,454.42Zm4.65-3.49a1.09,1.09,0,0,0-.26.05,4.48,4.48,0,0,0-6.94-2.74V437.52h9.19a1,1,0,0,0,0-2H318.2v-8.09h9.7l3,8.71V443h-2.55a1,1,0,0,0,0,2h2.55v6Z" transform="translate(-263.11 -385.13)" style="fill:#3d4460"/><path d="M264.77,442.51h46.77a1,1,0,0,0,1-1V416.13a1,1,0,0,0-1-1H264.77a1,1,0,0,0-1,1v25.38A1,1,0,0,0,264.77,442.51Zm1-25.38h44.77v23.38h-3.79V423a1,1,0,0,0-2,0v17.51h-3.83V423a1,1,0,0,0-2,0v17.51h-3.84V423a1,1,0,0,0-2,0v17.51h-3.83V423a1,1,0,0,0-2,0v17.51h-3.83V423a1,1,0,0,0-2,0v17.51h-3.84V423a1,1,0,0,0-2,0v17.51h-3.83V423a1,1,0,0,0-2,0v17.51h-4Z" transform="translate(-263.11 -385.13)" style="fill:#3d4460"/></svg>