<svg xmlns="http://www.w3.org/2000/svg" width="26.23mm" height="21.95mm" viewBox="0 0 74.35 62.23"><path d="M293.19,392H261.85a1,1,0,0,1,0-2h31.34a1,1,0,1,1,0,2Z" transform="translate(-260.85 -389.66)" style="fill:#bb9f82"/><path d="M276.9,397.81h-15a1,1,0,0,1,0-2h15a1,1,0,0,1,0,2Z" transform="translate(-260.85 -389.66)" style="fill:#bb9f82"/><path d="M287.54,397.81h-5.32a1,1,0,0,1,0-2h5.32a1,1,0,0,1,0,2Z" transform="translate(-260.85 -389.66)" style="fill:#bb9f82"/><path d="M324.79,401.64a6,6,0,1,1,6-6A6,6,0,0,1,324.79,401.64Zm0-10a4,4,0,1,0,4,4A4,4,0,0,0,324.79,391.66Z" transform="translate(-260.85 -389.66)" style="fill:#bb9f82"/><path d="M334.91,430.11a1,1,0,1,0-1.42-1.42l-4.36,4.37H313.3v-3.15a9.42,9.42,0,0,0-.81-3.83h4.92a1,1,0,0,0,0-2h-6.12a9.5,9.5,0,0,0-7.49-3.67h-1.36v-8.75a1,1,0,0,0-2,0v8.75h-1.36a9.47,9.47,0,0,0-7.48,3.67h-6a1,1,0,0,0,0,2h4.8a9.42,9.42,0,0,0-.81,3.83v3.15H273.87l-4.37-4.37a1,1,0,0,0-1.41,0,1,1,0,0,0,0,1.42l4.66,4.65a1,1,0,0,0,.64.28,5.26,5.26,0,0,0-1.21,3.34,5.32,5.32,0,0,0,10.64,0,5.25,5.25,0,0,0-1.2-3.32h8v7.33a9.51,9.51,0,0,0,9.5,9.5h4.72a9.51,9.51,0,0,0,9.5-9.5v-7.33h8.07a5.32,5.32,0,1,0,8.24,0,1,1,0,0,0,.64-.28ZM277.5,441.7a3.32,3.32,0,1,1,3.32-3.32A3.32,3.32,0,0,1,277.5,441.7Zm33.8.69a7.5,7.5,0,0,1-7.5,7.5h-4.72a7.5,7.5,0,0,1-7.5-7.5V429.91a7.5,7.5,0,0,1,7.5-7.5h4.72a7.5,7.5,0,0,1,7.5,7.5Zm14.2-.69a3.32,3.32,0,1,1,3.32-3.32A3.33,3.33,0,0,1,325.5,441.7Z" transform="translate(-260.85 -389.66)" style="fill:#3d4460"/><path d="M306.18,430.73h-9.37a1,1,0,1,0,0,2h9.37a1,1,0,1,0,0-2Z" transform="translate(-260.85 -389.66)" style="fill:#3d4460"/></svg>