<svg xmlns="http://www.w3.org/2000/svg" width="24.86mm" height="25.15mm" viewBox="0 0 70.47 71.29"><path d="M295.46,387.46H264.11a1,1,0,0,1,0-2h31.35a1,1,0,0,1,0,2Z" transform="translate(-262.84 -385.13)" style="fill:#bb9f82"/><path d="M279.16,393.28H264.11a1,1,0,0,1,0-2h15.05a1,1,0,1,1,0,2Z" transform="translate(-262.84 -385.13)" style="fill:#bb9f82"/><path d="M289.8,393.28h-5.32a1,1,0,0,1,0-2h5.32a1,1,0,0,1,0,2Z" transform="translate(-262.84 -385.13)" style="fill:#bb9f82"/><path d="M327.05,397.11a6,6,0,1,1,6-6A6,6,0,0,1,327.05,397.11Zm0-10a4,4,0,1,0,4,4A4,4,0,0,0,327.05,387.13Z" transform="translate(-262.84 -385.13)" style="fill:#bb9f82"/><path d="M332.31,454.42H320.72A4.82,4.82,0,1,0,316,448.6h-2.57a4.82,4.82,0,1,0-4.77,5.82H287.53a4.82,4.82,0,1,0-4.77-5.82h-2.57a4.82,4.82,0,1,0-4.76,5.82H263.84a1,1,0,0,0,0,2h68.47a1,1,0,0,0,0-2Zm-59.66-4.82a2.83,2.83,0,1,1,2.83,2.83A2.83,2.83,0,0,1,272.65,449.6Zm2.88,4.82a4.81,4.81,0,0,0,4.66-3.82h2.57a4.82,4.82,0,0,0,4.67,3.82Zm9.12-4.82a2.83,2.83,0,1,1,2.83,2.83A2.83,2.83,0,0,1,284.65,449.6Zm21.2,0a2.83,2.83,0,1,1,2.82,2.83A2.82,2.82,0,0,1,305.85,449.6Zm2.87,4.82a4.82,4.82,0,0,0,4.67-3.82H316a4.81,4.81,0,0,0,4.66,3.82Zm9.13-4.82a2.83,2.83,0,1,1,2.82,2.83A2.82,2.82,0,0,1,317.85,449.6Z" transform="translate(-262.84 -385.13)" style="fill:#3d4460"/><path d="M332.31,433.06a1,1,0,0,0-1,1v2.49h-4v-2a1,1,0,0,0-1-1H323V409.86a1,1,0,0,0-1-1H274.15a1,1,0,0,0-1,1v23.69h-3.33a1,1,0,0,0-1,1v2h-4v-2.49a1,1,0,0,0-2,0v7a1,1,0,0,0,2,0v-2.49h4V441a1,1,0,0,0,1,1h27.77a1,1,0,0,0,.48-.14,1,1,0,0,0,.49.14h27.77a1,1,0,0,0,1-1v-2.49h4V441a1,1,0,0,0,2,0v-7A1,1,0,0,0,332.31,433.06Zm-57.16-22.2H321v22.69h-3.48V416.43a1,1,0,0,0-2,0v17.12h-4V416.43a1,1,0,0,0-2,0v17.12h-3.68V416.43a1,1,0,1,0-2,0v17.12h-4.76V416.43a1,1,0,0,0-1-1h0a1,1,0,0,0-1,1v17.12H292.3V416.43a1,1,0,0,0-2,0v17.12h-3.68V416.43a1,1,0,1,0-2,0v17.12h-4V416.43a1,1,0,1,0-2,0v17.12h-3.48ZM325.33,440H298.56a1,1,0,0,0-.49.14,1,1,0,0,0-.48-.14H270.82v-4.49h54.51Z" transform="translate(-262.84 -385.13)" style="fill:#3d4460"/></svg>