<svg xmlns="http://www.w3.org/2000/svg" width="56.05mm" height="21.67mm" viewBox="0 0 158.88 61.44"><rect x="6.82" y="27.93" width="149.75" height="13.97" style="fill:#fff"/><path d="M368.78,414.16H353.15a1,1,0,0,0-.5.14l-.43.25V413a1,1,0,0,0-1-1H337.36a1,1,0,0,0-1,1v2.38h-2.14V413a1,1,0,0,0-1-1H319.36a1,1,0,0,0-1,1v2.38h-2.14V413a1,1,0,0,0-1-1H301.36a1,1,0,0,0-1,1v2.38h-2.14V413a1,1,0,0,0-1-1H283.36a1,1,0,0,0-1,1v2.38h-2.14V413a1,1,0,0,0-1-1H265.36a1,1,0,0,0-1,1v2.38h-8.48a1.13,1.13,0,0,0-.36.06l-4.15,1.6H251v-9.2h8.2v7.37h2v-7.4c1-.08,1.51-.3,1.76-.76a.67.67,0,0,0,.07-.18l2.24-3.66a1,1,0,0,0-.86-1.52H255.5L253,396.93h2.07v-2h-2.72v-4.87h-2v4.87h-2v2h2v4.71h-2.54a1,1,0,0,0-1,1v4.15a1,1,0,0,0,1,1H249v2.6h-4.16l0-5.6a1,1,0,0,0-1-1h-1.66v-2.33a1,1,0,0,0-1-1h-3.83a1,1,0,0,0-1,1v2.33h-1.83a1,1,0,0,0-1,1V417h-5.15a1,1,0,0,0-.73.31,1.07,1.07,0,0,0-.27.75c.41,6.87,4.81,8.54,6.15,8.89a20.39,20.39,0,0,1,4.45,2.2,1,1,0,0,0,.54.16h126.2a1,1,0,0,0,.87-1.51L363,423.58l6.53-7.77a1,1,0,0,0-.77-1.65ZM338.36,414h11.86v1.38H338.36Zm-18,0h11.86v1.38H320.36Zm-18,0h11.86v1.38H302.36Zm-18,0h11.86v1.38H284.36Zm-18,0h11.86v1.38H266.36Zm-14-13.94.86,1.63h-.86Zm-3.54,5.78v-2.15h13.73l-1.28,2.1a8.49,8.49,0,0,1-1.15.05h-11.3Zm.1,6.6V417h-4.1l0-4.6Zm-10.69-9.92h1.83v1.33h-1.83Zm-2.83,3.33h7.32l0,2.88h-7.35Zm0,4.88h7.37l0,6.31h-7.42ZM361,422.83a1,1,0,0,0-.09,1.15l1.94,3.32H238.71a20.83,20.83,0,0,0-4.77-2.3c-.94-.24-3.89-1.38-4.55-6h22.17a.92.92,0,0,0,.36-.07l4.15-1.59h95.09a1,1,0,0,0,.5-.14l1.76-1h13.21Z" transform="translate(-218.64 -390.06)" style="fill:#3d4460"/><rect x="34.12" y="19.04" width="1.81" height="2" style="fill:#3d4460"/><rect x="37.12" y="19.04" width="1.81" height="2" style="fill:#3d4460"/><rect x="34.12" y="22.04" width="1.81" height="2" style="fill:#3d4460"/><rect x="37.12" y="22.04" width="1.81" height="2" style="fill:#3d4460"/><path d="M225.46,434.2h-5.82a1,1,0,1,0,0,2h5.82a1,1,0,0,0,0-2Z" transform="translate(-218.64 -390.06)" style="fill:#3d4460"/><path d="M257.11,435.2a1,1,0,0,0-1-1H235.18a1,1,0,0,0,0,2h20.93A1,1,0,0,0,257.11,435.2Z" transform="translate(-218.64 -390.06)" style="fill:#3d4460"/><path d="M286.39,436.2a1,1,0,0,0,0-2H267.61a1,1,0,0,0,0,2Z" transform="translate(-218.64 -390.06)" style="fill:#3d4460"/><path d="M309.42,436.2a1,1,0,0,0,0-2H293.13a1,1,0,0,0,0,2Z" transform="translate(-218.64 -390.06)" style="fill:#3d4460"/><path d="M343,434.2H319.36a1,1,0,0,0,0,2H343a1,1,0,0,0,0-2Z" transform="translate(-218.64 -390.06)" style="fill:#3d4460"/><path d="M366.37,434.2H351.74a1,1,0,0,0,0,2h14.63a1,1,0,0,0,0-2Z" transform="translate(-218.64 -390.06)" style="fill:#3d4460"/><path d="M376.51,434.2h-5.15a1,1,0,0,0,0,2h5.15a1,1,0,0,0,0-2Z" transform="translate(-218.64 -390.06)" style="fill:#3d4460"/><path d="M267,442H255.76a1,1,0,0,0,0,2H267a1,1,0,0,0,0-2Z" transform="translate(-218.64 -390.06)" style="fill:#3d4460"/><path d="M299.12,443a1,1,0,0,0-1-1h-17.3a1,1,0,1,0,0,2h17.3A1,1,0,0,0,299.12,443Z" transform="translate(-218.64 -390.06)" style="fill:#3d4460"/><path d="M331.19,442H313.91a1,1,0,0,0,0,2h17.28a1,1,0,1,0,0-2Z" transform="translate(-218.64 -390.06)" style="fill:#3d4460"/><path d="M354.65,442h-9a1,1,0,0,0,0,2h9a1,1,0,0,0,0-2Z" transform="translate(-218.64 -390.06)" style="fill:#3d4460"/><path d="M313.16,449.5H296.87a1,1,0,0,0,0,2h16.29a1,1,0,1,0,0-2Z" transform="translate(-218.64 -390.06)" style="fill:#3d4460"/></svg>